<svg id="图层_1" data-name="图层 1" xmlns="http://www.w3.org/2000/svg" viewBox="0 0 241.092 225.0139"><defs><style>.cls-1{fill:#54b440;}.cls-2{fill:#f5f292;}.cls-3{fill:#f1978f;}.cls-4{fill:#6dc7f1;}.cls-5{fill:#0462a6;}.cls-6{fill:#efef8e;}.cls-7{fill:#dbeabe;}.cls-8{fill:#6fc198;}.cls-9{fill:#f4e62e;}.cls-10{fill:#ea5528;}.cls-11{fill:#f5ac18;}.cls-12{fill:#7156a2;}</style></defs><path class="cls-1" d="M115.7,223.38a4.4564,4.4564,0,0,0,2.68,2.64,4.87,4.87,0,0,0-2.7,2.59,4.3514,4.3514,0,0,0-2.73-2.49c.58-.56,1.28-.65,1.7-1.08A9.0216,9.0216,0,0,0,115.7,223.38Z" transform="translate(-32.79 -41.6261)"/><path class="cls-1" d="M83.27,101.9c-.55.7-1.31.7-1.71,1.16a13.929,13.929,0,0,0-1.12,1.72,4.0079,4.0079,0,0,0-2.67-2.64c.57-.52,1.26-.64,1.7-1.05a8.2267,8.2267,0,0,0,1.05-1.66C81.14,100.61,81.81,101.67,83.27,101.9Z" transform="translate(-32.79 -41.6261)"/><path class="cls-2" d="M258.02,125.09a2.214,2.214,0,0,1-1.11.73,4.6308,4.6308,0,0,0-1.93,1.36c-.52.71-.86,1.54-1.39,2.26l-.03.03c-.03,0-.05-.03-.07-.05-.59-1.14-.95-2.55-2.17-3.15-.66-.32-1.31-.66-2.2-1.12.81-.43,1.38-.78,1.98-1.04a2.6586,2.6586,0,0,0,1.48-1.41c.27-.6.63-1.16.98-1.78a6.0284,6.0284,0,0,1,1.16,1.67,3.1222,3.1222,0,0,0,1.6,1.58A7.4187,7.4187,0,0,1,258.02,125.09Z" transform="translate(-32.79 -41.6261)"/><path class="cls-3" d="M91.09,254.35c.43.22.86.46,1.36.74a4.73,4.73,0,0,1-1.3.82c-1.37.72-2.74,1.45-4.13,2.14a2.4961,2.4961,0,0,0-1.09,1.09c-.94,1.69-1.98,3.33-2.92,5.22a15.967,15.967,0,0,1-2.16-3.57,6.4043,6.4043,0,0,0-3.52-3.54c-1.33-.56-2.57-1.32-4.04-2.09,1.04-.57,1.94-1.07,2.85-1.56,1-.53,1.98-1.08,3-1.56a1.9664,1.9664,0,0,0,.81-.93,53.0056,53.0056,0,0,1,2.9-5.01c.28-.05.31.17.38.3.92,1.59,1.84,3.17,2.72,4.78a2.5177,2.5177,0,0,0,1.11,1.08C88.41,252.94,89.75,253.65,91.09,254.35Z" transform="translate(-32.79 -41.6261)"/><path class="cls-3" d="M252.15,144.95c.18.1.35.22.56.35-.14.32-.43.4-.66.52-2.31,1.21-4.61,2.43-6.94,3.62a3.18,3.18,0,0,0-1.49,1.41c-1.21,2.23-2.48,4.43-3.73,6.64a1.5182,1.5182,0,0,1-.68.78c-.14-.22-.25-.39-.36-.58-1.31-2.33-2.64-4.66-3.93-7.01a2.6532,2.6532,0,0,0-1.2-1.12c-2.6-1.34-5.19-2.71-7.87-4.12a6.4629,6.4629,0,0,1,1.71-1.07c2.16-1.13,4.31-2.26,6.48-3.36a2.1263,2.1263,0,0,0,.89-1.01c1.33-2.37,2.66-4.73,4-7.1.08-.15.18-.3.27-.44.37.11.49.41.64.68,1.25,2.21,2.52,4.4,3.72,6.64a3.5867,3.5867,0,0,0,1.65,1.55C247.53,142.52,249.84,143.74,252.15,144.95Z" transform="translate(-32.79 -41.6261)"/><path d="M273.82,188.36c.46,3.31-1.68,6.36-5.08,7.55-1.43.51-3.91.43-4.72,1.79-2.12,3.53-7.35,5.91-11.12,7.07a21.2615,21.2615,0,0,1-10.56.76,12.759,12.759,0,0,1-4.39-1.79c-.83-.53-1.64-1.1-2.44-1.67-.29-.2-.5-.32-.83-.03a20.4613,20.4613,0,0,1-6.05,3.42,48.3717,48.3717,0,0,1-9.46,2.67,18.7085,18.7085,0,0,1-12.23-1.87,42.3942,42.3942,0,0,1-8.14-5.13,13.6067,13.6067,0,0,1-1.81-1.91c-.64-.8-1.24-1.63-1.85-2.45-.47-.64-.46-.65-1.17-.32a10.88,10.88,0,0,1-6.15,1.21,12.1217,12.1217,0,0,1-6.47-2.38,9.3063,9.3063,0,0,1-1.86-2.42c-.12-.2-.1-.5-.44-.61-.35.55-.75,1.08-1.06,1.67-1.62,3.09-3.41,6.1-4.96,9.23-.26.54-.61,1.04-.88,1.57-.31.61-.28.64.33.96a108.4865,108.4865,0,0,0,15.83,6.81,100.5391,100.5391,0,0,0,16.86,4.07,89.8288,89.8288,0,0,0,15.63,1,94.3236,94.3236,0,0,0,15.35-1.74c1.36-.26,2.6-.88,3.97-1.09a.45.45,0,0,1,.45.06,7.0358,7.0358,0,0,1-1.23,2.24c-1.09,1.16-2.13,2.36-3.23,3.5-2.4,2.5-4.88,4.92-7.49,7.18a102.5792,102.5792,0,0,1-18.59,12.88,105.1813,105.1813,0,0,1-32.17,11.16,109.425,109.425,0,0,1-39.93-.35,114.0173,114.0173,0,0,1-23.33-7.16,115.6118,115.6118,0,0,1-11.37-5.65,112.354,112.354,0,0,1-14.8-10.01c-2.98-2.39-5.84-4.9-8.57-7.57a104.8017,104.8017,0,0,1-8.96-9.88c-.1-.14-.26-.24-.34-.4-.73-1.41-1.88-1.45-3.28-1.19-2.77.52-5.58.87-8.39,1.15-1.44.15-2.89.23-4.33.3-.85.04-1.28-.23-1.35-.72-.07-.51.23-.83,1.11-1.02a18.6386,18.6386,0,0,0,6.57-3.06,23.8314,23.8314,0,0,0,3.51-2.9.5865.5865,0,0,0,.09-.88c-2.07-3.25-3.99-6.58-5.82-9.97a2.4371,2.4371,0,0,1-.14-.28c-1.68-3.58-3.38-7.14-4.77-10.85-1.32-3.47-2.37-7.01-3.4-10.58a97.7472,97.7472,0,0,1-2.86-15.17c-.02-.13-.05-.26-.08-.39-.08-.03-.15-.06-.23-.09-.75,1.34-1.5,2.68-2.28,4.08a5.0566,5.0566,0,0,1-.92-1.23c-1.02-1.81-1.97-3.67-3.06-5.44a3.0561,3.0561,0,0,0-1.26-1.21c-1.98-1.03-3.94-2.07-5.91-3.11-.27-.14-.53-.32-.97-.58.96-.52,1.8-.99,2.65-1.44q2.25-1.185,4.5-2.36a2.2309,2.2309,0,0,0,.88-.87c1.11-1.8,2.09-3.68,3.12-5.53.25-.46.57-.87.93-1.41.62,1.11,1.18,2.12,1.73,3.11.32-.08.24-.29.25-.44a108.815,108.815,0,0,1,3.02-20.08,89.2476,89.2476,0,0,1,2.82-9.32,111.9464,111.9464,0,0,1,5.86-13.26,100.2526,100.2526,0,0,1,5.69-9.42,98.2994,98.2994,0,0,1,5.92-7.85,100.8771,100.8771,0,0,1,8.58-9.08A103.0289,103.0289,0,0,1,107.71,50.6a107.3076,107.3076,0,0,1,34.96-8.68,104.074,104.074,0,0,1,13.45-.14,107.2176,107.2176,0,0,1,10.73,1.14,10.1332,10.1332,0,0,1,2.19.37c.5.21,1.71,1.12.48,1.54-.37.12-.71.3-1.08.43-2.44.82-4.9,1.57-7.32,2.47a71.97,71.97,0,0,0-7.01,2.99,70.4646,70.4646,0,0,0-13.28,8.46,69.146,69.146,0,0,0-8.45,8.14,69.83,69.83,0,0,0-11.43,18.21,1.5688,1.5688,0,0,0,.07,1.58c.94,1.57,1.83,3.18,2.72,4.78a1.8931,1.8931,0,0,0,.84.77q5.1,2.685,10.21,5.36c1.21.64,2.42,1.3,3.61,1.94-.06.34-.33.39-.54.5-2.28,1.19-4.56,2.37-6.84,3.57-2.1,1.1-4.18,2.22-6.27,3.31a2.6256,2.6256,0,0,0-1.17,1.16c-.64,1.18-1.34,2.32-2,3.49-.18.3-.32.62-.45.89a.2612.2612,0,0,0,.3.16c3.05-.31,6.11-.63,9.16-.96,2.7-.29,5.41-.56,8.1-.91,3.11-.41,6.22-.89,9.32-1.35,1.33-.19,2.65-.44,3.98-.57a10.3044,10.3044,0,0,0,3.51-1.12c6.24-3,12.64-5.61,19.14-7.98a208.1343,208.1343,0,0,1,26.71-7.76,170.9278,170.9278,0,0,1,18.27-3.01c3.95-.43,7.92-.66,11.88-.72,1.99-.03,3.97-.02,5.96.03,1.67.04,3.64-.12,5.17.65,4.95,2.46,1.52,11.91-.05,15.44a70.1266,70.1266,0,0,1-4.08,8.01,119.7247,119.7247,0,0,1-8.05,11.8c-1,1.28-1.98,2.57-2.99,3.84-2.51,3.15-5.16,6.18-7.86,9.17q-4.26,4.71-8.8,9.16c-3.06,2.98-6.12,5.96-9.31,8.8a3.0587,3.0587,0,0,0-.61.86c-1.61,2.95-3.52,5.71-5.36,8.5-.06.09-.12.18-.17.27-1.63,2.65-3.27,5.28-4.88,7.94a4.987,4.987,0,0,0-.93,1.57,39.7584,39.7584,0,0,1,4.05.85c.32.09.47-.05.55-.32.04-.1.06-.21.09-.31a10.067,10.067,0,0,1,5.56-6.06,7.48,7.48,0,0,1,8.23,1.15c.14.11.27.24.4.35.1.09.22.18.32.26.36-.09.36-.43.47-.66a19.3909,19.3909,0,0,1,1.38-2.38,15.7911,15.7911,0,0,1,7.03-5.75,22.4729,22.4729,0,0,1,11.12-2.12,17.3041,17.3041,0,0,1,13.02,6.98,10.221,10.221,0,0,1,1.4,2.08,18.2652,18.2652,0,0,1,2.91-1.61,21.4848,21.4848,0,0,1,7.61-1.7,12.5605,12.5605,0,0,1,9.26,3.49,10.3935,10.3935,0,0,1,2.03,2.83,16.1347,16.1347,0,0,1,1.75,5.63c.07.59.17,1.19.21,1.79a.7863.7863,0,0,0,.58.77C271.45,181.37,273.28,184.45,273.82,188.36Zm-5.2,5.35a5.3107,5.3107,0,0,0,2.97-5.78,10.6141,10.6141,0,0,0-2.1-4.35,4.4743,4.4743,0,0,0-3.07-1.87,1.4953,1.4953,0,0,1-1.48-1.4c-.03-.28-.1-.56-.15-.84a27.1016,27.1016,0,0,0-1.24-5.56,9.8234,9.8234,0,0,0-6.82-6.12,13.08,13.08,0,0,0-6.4-.01c-2.42.53-4.8,1.18-6.64,3.02a1.13,1.13,0,0,1-1.7-.06,3.7,3.7,0,0,1-.44-.6,21.7627,21.7627,0,0,0-2.72-3.63,15.47,15.47,0,0,0-11.17-5.07,21.2764,21.2764,0,0,0-11.89,3.23,12.2394,12.2394,0,0,0-5.66,7.5c-.27.97-.99,1.21-1.73.51-.57-.53-1.13-1.06-1.74-1.53a5.7061,5.7061,0,0,0-5.6-1,8.721,8.721,0,0,0-5.61,5.77c-.41,1.21-.69,1.38-1.93,1.05-1.36-.36-2.74-.66-4.1-1.03a.7005.7005,0,0,0-.95.37c-.55.95-1.17,1.85-1.74,2.78-2.01,3.28-3.97,6.59-5.92,9.9-.91,1.54-.92,1.58.16,3.02.84,1.12,1.61,2.35,3.05,2.84.7.23,1.4.46,2.11.67a9.0928,9.0928,0,0,0,6.31-.42c.55-.24,1.09-.5,1.64-.75a1.41,1.41,0,0,1,2.01.54c.41.58.76,1.19,1.14,1.79a15.4393,15.4393,0,0,0,4.08,4.25,51.5824,51.5824,0,0,0,5.52,3.34,18.1211,18.1211,0,0,0,12.6,1.93,49.34,49.34,0,0,0,8.92-2.62,14.96,14.96,0,0,0,5.71-3.54c.53-.58.95-.58,1.59-.12.61.43,1.18.9,1.77,1.35a12.6209,12.6209,0,0,0,8.07,2.72,23.59,23.59,0,0,0,7.87-1.45,26.7216,26.7216,0,0,0,4.79-2.38,13.9615,13.9615,0,0,0,3.43-2.51,14.5325,14.5325,0,0,1,1.68-2.2C264.66,194.35,266.99,194.48,268.62,193.71ZM242.27,99.79a12.1653,12.1653,0,0,0,.67-5.7c-.49-3.06-2.94-3.39-5.52-3.54a108.4393,108.4393,0,0,0-16.71.55c-3.58.34-7.15.84-10.7,1.45-1.84.31-3.69.58-5.57,1.07.26.65.51,1.19.71,1.75a68.5717,68.5717,0,0,0,3.05,7.43,65.6524,65.6524,0,0,0,5.45,9.54,65.972,65.972,0,0,0,7.15,8.49,42.549,42.549,0,0,0,3.58,3.14c.66.53,1.39.96,2.09,1.45a.4716.4716,0,0,0,.73-.1c.37-.47.79-.9,1.15-1.38,1.62-2.22,3.31-4.39,4.87-6.66,1.08-1.57,2.09-3.18,3.11-4.79a52.8948,52.8948,0,0,0,4.89-9.49C241.61,101.95,241.89,100.85,242.27,99.79ZM236.1,217.91c-.05-.06-.1-.13-.15-.19-.24.04-.49.07-.72.12a72.8565,72.8565,0,0,1-12.38,1.61,92.6008,92.6008,0,0,1-20.16-1.22,103.1937,103.1937,0,0,1-23.58-7.07c-2.56-1.11-5.06-2.33-7.54-3.6-.66-.34-.68-.35-1.02.32-.41.83-.85,1.62-1.32,2.41a2.0863,2.0863,0,0,1-1.9,1.12c-2.94.03-5.87.1-8.8.09-4.45-.02-8.89-.5-13.34-.56-.35-.01-.71-.04-1.06-.08-1.23-.14-1.65-.93-.99-2,.93-1.51,1.86-3.01,2.87-4.45,2.12-3,4.06-6.12,6.28-9.05.28-.37.18-.63-.18-.87a12.1449,12.1449,0,0,1-1.84-1.59.8486.8486,0,0,0-1.13-.19c-.18.1-.38.18-.57.27a77.6462,77.6462,0,0,1-9.49,3.92,62.3313,62.3313,0,0,1-7.37,1.92,1.2838,1.2838,0,0,1-1.38-.27c-.96-1.16-2.33-1.82-3.35-2.91-.16-.16-.3-.4-.65-.35-.04.05-.11.13-.18.21a18.732,18.732,0,0,1-2.92,3.05c-4.36,3.05-9.12,4.91-14.54,4.65-2.01-.09-4.02-.23-6.03-.35a18.4175,18.4175,0,0,0-9.08,1.66,7.9515,7.9515,0,0,0-4.38,4.64c-.31.91-.56,1.82-.79,2.75a3.967,3.967,0,0,1-.3.9.86.86,0,0,1-1.49.17,2.0786,2.0786,0,0,1-.27-.32,8.6751,8.6751,0,0,1-1.49-5.83c.04-.33.3-.64.11-1.11a60.9921,60.9921,0,0,1-13.48,3.26,2.7494,2.7494,0,0,0,.66,1.06c1.56,1.86,3.12,3.73,4.77,5.53a114.2322,114.2322,0,0,0,8.56,8.34,110.7864,110.7864,0,0,0,11.84,9.07,114.0692,114.0692,0,0,0,11.53,6.69,110.9478,110.9478,0,0,0,17.66,7.09,109.3525,109.3525,0,0,0,26.73,4.7,107.6126,107.6126,0,0,0,25.52-1.7,106.0406,106.0406,0,0,0,20.48-6.04,103.3481,103.3481,0,0,0,20.31-11.08,99.63,99.63,0,0,0,10.69-8.66c1.29-1.2,2.5-2.49,3.77-3.71C234.76,219.53,235.41,218.69,236.1,217.91Zm-10.73-90.26c.5-.58.49-.65-.15-1.04a34.8441,34.8441,0,0,1-6.69-5.66,64.3974,64.3974,0,0,1-5.76-6.9,55.5014,55.5014,0,0,1-5.98-10.45,52.8421,52.8421,0,0,1-3.24-9.06,2.7457,2.7457,0,0,0-.11-.41.3567.3567,0,0,0-.4-.26c-.17.04-.34.08-.51.11-1.45.32-2.91.61-4.34.96a217.7393,217.7393,0,0,0-29.24,9.26,214.1852,214.1852,0,0,0-20.22,9.24A191.9553,191.9553,0,0,0,131.2,123.7a146.86,146.86,0,0,0-13.58,10.13c-1.1.93-2.18,1.9-3.26,2.85q-2.865,2.52-5.49,5.3a.7253.7253,0,0,0-.1,1.01c1.56,2.73,2.91,5.56,4.38,8.34,1.56,2.92,3.27,5.77,4.86,8.67,1.39,2.55,2.91,5.01,4.45,7.46,1.01,1.61,2.1,3.18,3.23,4.71,3,4.06,6.22,7.94,9.58,11.71,2.4,2.69,4.93,5.25,7.49,7.78.23.22.52.37.73.61.42.45.82.36,1.32.13,2.61-1.18,5.18-2.43,7.69-3.8,5.48-3,10.82-6.23,15.99-9.75q3.33-2.265,6.59-4.63c4.37-3.17,8.67-6.43,12.86-9.84q4.11-3.345,8.09-6.83c4.16-3.66,8.26-7.39,12.19-11.3,2.55-2.54,5.08-5.11,7.52-7.75,1.04-1.12,2.04-2.26,3.08-3.36C221.11,132.73,223.19,130.15,225.37,127.65ZM196.08,161.3a17.4175,17.4175,0,0,0,1.01-1.52,18.327,18.327,0,0,0-2.56,1.91c-1.46,1.23-2.89,2.5-4.37,3.69-3.38,2.72-6.73,5.49-10.24,8.05a1.4979,1.4979,0,0,0-.66.91,24.0631,24.0631,0,0,1-2.08,5.19,73.0831,73.0831,0,0,1-4.98,8.84c-1.67,2.54-3.28,5.11-4.93,7.66-.5.77-1.03,1.52-1.55,2.27a1.9257,1.9257,0,0,1-.68.65.75.75,0,0,1-.89-.01.8172.8172,0,0,1-.39-.91,4.3768,4.3768,0,0,1,.49-1.05c1.67-2.62,3.32-5.25,5.07-7.82a134.0129,134.0129,0,0,0,7.74-12.86c.13-.25.38-.5.24-.89-.15.09-.28.15-.39.23q-4.65,3.36-9.44,6.52a39.8378,39.8378,0,0,0-5.4,3.68c-1.8,1.67-3.19,4.01-4.67,5.97-2.14,2.85-4.17,5.78-6.2,8.7-1.76,2.52-3.46,5.08-5.18,7.62-.13.19-.32.38-.26.66.2.2.46.12.69.13,1.41.08,2.82.13,4.23.23a131.2564,131.2564,0,0,0,15.99.25,1.2064,1.2064,0,0,0,1.2-.8c.62-1.3,1.3-2.58,1.97-3.86,2.16-4.12,4.41-8.2,6.69-12.26,1.42-2.52,2.87-5.02,4.3-7.53.05-.1.11-.19.16-.28q3.36-5.325,6.71-10.65c1.59-2.5,3.11-5.05,4.78-7.49C193.67,164.78,194.72,162.93,196.08,161.3ZM168.89,43.8c-.95-.1-1.9-.19-2.84-.3-3.4-.43-6.82-.67-10.24-.77a112.391,112.391,0,0,0-27.87,2.66,107.3,107.3,0,0,0-16.13,5.05A103.3691,103.3691,0,0,0,87.51,64.3a96.0242,96.0242,0,0,0-8.66,7.47,99.9687,99.9687,0,0,0-8.81,9.71c-2,2.52-3.89,5.12-5.63,7.82a103.1217,103.1217,0,0,0-5.97,10.6c-1,2.03-1.9,4.1-2.76,6.19a85.461,85.461,0,0,0-3.07,8.79,99.8573,99.8573,0,0,0-3.56,17.3c-.34,3.13-.53,6.26-.61,9.41a2.238,2.238,0,0,0,1.2,2.19q3.24,1.695,6.47,3.37a1.4871,1.4871,0,0,1,.66.48,3.4,3.4,0,0,1-.27.23c-2.19,1.14-4.37,2.3-6.57,3.43-1.03.53-1.21.79-1.1,1.89a96.15,96.15,0,0,0,1.53,10.26,101.6057,101.6057,0,0,0,3.05,11.89c.9,2.56,1.7,5.15,2.78,7.65,1.14,2.66,2.29,5.31,3.59,7.9,1.4,2.82,3,5.52,4.6,8.22a10.0954,10.0954,0,0,0,1.6,2.23,18.5387,18.5387,0,0,0,1.46-2.67,9.1162,9.1162,0,0,0,.81-6.17,3.5867,3.5867,0,0,0-.85-1.68,6.3547,6.3547,0,0,0-5.23-2.06c-.28,0-.56.06-.84.07a.76.76,0,0,1-.77-.45.7888.7888,0,0,1,.15-.89,2.2159,2.2159,0,0,1,.94-.65c.66-.27,1.3-.55,1.95-.83a8.7115,8.7115,0,0,0,3.62-3,8.4558,8.4558,0,0,0,1.47-4.56c.1-1.41.18-2.82.42-4.22a11.7225,11.7225,0,0,1,4.64-7.56,21.1218,21.1218,0,0,1,8.21-3.52c5.95-1.38,11.95-2.49,18.01-3.27.46-.06.91-.15,1.36-.23.4-.08.51-.27.34-.67a40.2722,40.2722,0,0,1-1.73-5.77,3.2708,3.2708,0,0,1,.58-3.11c.17-.22.33-.46.49-.69,1.63-2.26,3.29-4.5,5.12-6.61a74.2688,74.2688,0,0,1,5.51-5.71,4.4978,4.4978,0,0,0,1.12-1.26c-.52.1-.93.18-1.34.25-1.7.33-3.39.68-5.1.96-3.2.54-6.45.77-9.69,1.03-1.05.09-2.11.21-3.16.26a1.397,1.397,0,0,1-1.69-1.34c-.08-.42-.12-.84-.19-1.26-.27-1.89-.4-3.79-.75-5.67-.51-2.71-1.01-5.42-1.46-8.13a15.4581,15.4581,0,0,1-.16-4.02,1.3828,1.3828,0,0,1,1.4-1.44c1.64-.2,3.29-.41,4.94-.6,4.52-.53,9.04-1.04,13.57-1.56.76-.09,1.51-.19,2.35-.29-.99-1.79-1.91-3.49-2.84-5.18a3.8446,3.8446,0,0,0-1.71-1.65c-1.18-.57-2.31-1.21-3.47-1.82-2.31-1.21-4.63-2.41-6.94-3.63-1.01-.53-2.01-1.09-3.06-1.66a1.8926,1.8926,0,0,1,.34-.26c4.37-2.3,8.73-4.61,13.12-6.88a4.1618,4.1618,0,0,0,1.76-1.74c1.35-2.4,2.69-4.8,4.05-7.19.97-1.73,1.95-3.44,2.93-5.16.08-.14.15-.33.4-.3,1.16,1.73,2.12,3.6,3.16,5.42a.7784.7784,0,0,0,.39-.45c1.4-2.73,2.7-5.51,4.35-8.11a81.3721,81.3721,0,0,1,5.1-7.15,67.1541,67.1541,0,0,1,9.82-9.91,69.3739,69.3739,0,0,1,15.2-9.54,67.4285,67.4285,0,0,1,10.1-3.78C165.74,44.58,167.32,44.27,168.89,43.8ZM155.17,191.3c.58-.79,1.16-1.58,1.74-2.36l-.18-.18c-1.63.89-3.27,1.77-4.97,2.68.52.44.91.79,1.31,1.13.7.58.69.57,1.26-.2C154.6,192,154.9,191.66,155.17,191.3Zm-5.87-80.27a2.8306,2.8306,0,0,0-.42,0c-4.11.82-8.26,1.51-12.42,2.01-5.19.61-10.39,1.16-15.58,1.68a1.6029,1.6029,0,0,0-1.45.97c-1.05,2-2.13,3.98-3.38,5.89-.3-.07-.35-.26-.44-.4-.9-1.56-1.84-3.1-2.66-4.69-.37-.71-.79-1.02-1.56-.84a4.52,4.52,0,0,1-.53.06c-2.84.32-5.68.62-8.52.95-3.5.42-7,.87-10.51,1.28-.56.07-.7.31-.67.82a27.3924,27.3924,0,0,0,.57,4.62,97.9612,97.9612,0,0,1,1.77,11.3c.16,1.61.17,1.63,1.76,1.5a121.1951,121.1951,0,0,0,13.02-1.62,60.8484,60.8484,0,0,1,7.1-1.21,1.6167,1.6167,0,0,0,.9-.5c1.19-.99,2.37-2.01,3.59-2.97,3.31-2.58,6.69-5.08,10.18-7.41.14-.1.39-.15.31-.45-2.04.33-4.05.7-6.07.99-6.08.85-12.14,1.79-18.17,2.98a4.0973,4.0973,0,0,1-1.05.07.9422.9422,0,0,1-.91-.87.9861.9861,0,0,1,.65-1,2.7863,2.7863,0,0,1,.72-.14c1.12-.15,2.24-.27,3.36-.43,2.43-.36,4.86-.71,7.29-1.02,4.91-.66,9.83-1.22,14.77-1.71a5.1286,5.1286,0,0,0,2.43-.59c2.02-1.29,4.06-2.56,6.13-3.78,2.32-1.35,4.64-2.68,7.03-3.91A19.4453,19.4453,0,0,0,149.3,111.03Zm-7.24,82.55a1.0074,1.0074,0,0,0-.48-.7c-.65-.59-1.34-1.14-1.98-1.75-1.86-1.79-3.69-3.61-5.4-5.53-3.04-3.39-6.02-6.84-8.76-10.47a102.0626,102.0626,0,0,1-6.12-9.02c-1.69-2.81-3.3-5.68-4.84-8.57a82.9355,82.9355,0,0,1-4.8-10.13c-.3-.83-.6-1.66-.94-2.47-.26-.63-.58-1.23-.92-1.93-1.6,1.8-3.21,3.39-4.57,5.2a6.0417,6.0417,0,0,1-.62.72,8.3192,8.3192,0,0,0-1.53,2.27,2.2475,2.2475,0,0,0-.14,1.63,30.4389,30.4389,0,0,0,2,5.45c1.48,3.09,2.91,6.19,4.51,9.22.24.47.48.95.76,1.4q3.09,4.935,6.56,9.61c1.88,2.51,3.76,5.03,5.68,7.52a73.3341,73.3341,0,0,0,10.24,10.38,1.4219,1.4219,0,0,0,1.26.37A52.36,52.36,0,0,0,142.06,193.58Zm-8.1-93.5c-.29-.18-.43-.29-.58-.37-3.46-1.83-6.91-3.67-10.39-5.47a2.1912,2.1912,0,0,1-.98-.9q-1.875-3.375-3.78-6.73c-.66-1.16-1.35-2.31-2.02-3.47a.3.3,0,0,0-.39-.17c-1.91,3.37-3.86,6.76-5.77,10.17a2.9415,2.9415,0,0,1-1.25,1.22c-3.23,1.67-6.44,3.35-9.66,5.04a2.7737,2.7737,0,0,0-1.02.65,4.04,4.04,0,0,0,1.11.7q4.77,2.505,9.56,4.99a2.3781,2.3781,0,0,1,1.1.94c1.55,2.84,3.23,5.62,4.75,8.48a10.7673,10.7673,0,0,0,1.44,2.15,16.3226,16.3226,0,0,1,1.38-2.39c1.51-2.75,3.06-5.48,4.59-8.22a1.5315,1.5315,0,0,1,.62-.69q3-1.56,6-3.14C130.38,101.97,132.09,101.07,133.96,100.08Zm-8.94,95.06c.62-.63.63-.62-.04-1.29a58.5424,58.5424,0,0,1-4.65-4.93c-.33-.41-.74-.77-1.04-1.19a.7451.7451,0,0,0-1.08-.26,6.0639,6.0639,0,0,0-1.86,1.2,12.8675,12.8675,0,0,0-3.91,8.54c-.02.68-.36.95-1.02.87a1.6765,1.6765,0,0,1-.77-.34,8.2013,8.2013,0,0,1-2.75-3.29,2.52,2.52,0,0,0-2.02-1.65,27.6,27.6,0,0,0-3.14-.45,20.9735,20.9735,0,0,0-10.93,2.39,29.2822,29.2822,0,0,1-4.93,2.17,14.8027,14.8027,0,0,1-11-1.11,4.3122,4.3122,0,0,1-1.31-.88.8882.8882,0,0,1,.35-1.53,4.4073,4.4073,0,0,1,1.35-.19,8.568,8.568,0,0,0,6.67-4.14,1.2817,1.2817,0,0,0-.26-1.97,5.1564,5.1564,0,0,0-3.61-1.54c-.85.03-1.7.08-2.54.06a1.2069,1.2069,0,0,1-1.21-1.79,3.9548,3.9548,0,0,1,.82-1.23c.77-.83,1.56-1.63,2.33-2.46a12.8979,12.8979,0,0,1,6.67-3.87c2.09-.5,4.19-.98,6.31-1.35a22.3677,22.3677,0,0,0,3.4-.8,3.5594,3.5594,0,0,0,1.83-1.36c.4-.56.37-.72-.2-1.08a7.8932,7.8932,0,0,0-2.91-.9c-1.25-.23-2.5-.44-3.75-.67a.8814.8814,0,0,1-.77-.77.9405.9405,0,0,1,.52-.97,2.573,2.573,0,0,1,1.09-.37c3.97-.41,7.9-.4,11.67,1.2.68.29,1.39.5,2.09.74a4.006,4.006,0,0,0,2.33.08,1.7094,1.7094,0,0,0-.35-.98,45.4636,45.4636,0,0,1-2.38-4.73c-.29-.75-.65-1.49-.91-2.25a.7813.7813,0,0,0-1.03-.61c-1.07.2-2.16.33-3.23.53-4.76.86-9.57,1.39-14.3,2.43-2.76.6-5.54,1.12-8.03,2.55a10.4874,10.4874,0,0,0-4.82,5.43,12.6028,12.6028,0,0,0-.68,2.77c-.21,1.61-.31,3.23-.63,4.83a9.95,9.95,0,0,1-3.31,5.87c-.68.58-1.46,1.01-2.19,1.54a2.1775,2.1775,0,0,0,1.05.43,6.0926,6.0926,0,0,1,4.33,5.12,11.595,11.595,0,0,1-.62,5.63c-1.42,4.07-4.32,6.87-7.86,9.11-.5.32-1.01.61-1.51.92a5.5642,5.5642,0,0,0,1.78-.03c2.9-.45,5.79-.92,8.68-1.36a67.6515,67.6515,0,0,0,14.19-3.34,16.3662,16.3662,0,0,0,1.53-.71.8808.8808,0,0,1,1.22,1.2c-.1.22-.25.42-.36.65a7.8438,7.8438,0,0,0-.35,5.64c.35-.11.34-.35.38-.55a12.7892,12.7892,0,0,1,1.46-3.5,7.66,7.66,0,0,1,2.23-2.51,17.2889,17.2889,0,0,1,9.12-3.02,43.2226,43.2226,0,0,1,7.19.3,20.1793,20.1793,0,0,0,4.66.03A22.0338,22.0338,0,0,0,125.02,195.14Zm-7.94-9.2c.56-.36.55-.42.14-.97-1.27-1.69-2.57-3.37-3.79-5.1-1.62-2.31-3.31-4.58-4.74-7.01-.25-.42-.56-.81-.83-1.22-.15-.23-.3-.42-.6-.25-1.31.75-2.6.35-3.88-.07-.97-.32-1.92-.72-2.89-1.03a9.8273,9.8273,0,0,0-3.6-.57c.41.29.64.44.86.59a2.0472,2.0472,0,0,1,.84,2.84,4.067,4.067,0,0,1-2.04,2.2,11.7048,11.7048,0,0,1-2.5.85c-2.07.45-4.15.86-6.21,1.34a21.88,21.88,0,0,0-4.53,1.43c-2.23,1.06-3.75,2.94-5.42,4.65-.01.02.01.07.02.13.34.14.67-.04,1.01-.03a6.4611,6.4611,0,0,1,6.03,3.22,2.2092,2.2092,0,0,1,.06,2.21,9.3136,9.3136,0,0,1-6.13,5.14c-.36.1-.71.22-1.04.33.05.3.25.33.4.39a13.629,13.629,0,0,0,5.29.84,13.7857,13.7857,0,0,0,6.03-1.81,37.2459,37.2459,0,0,1,5.07-2.39,20.6524,20.6524,0,0,1,11.36-.75,4.2189,4.2189,0,0,1,3.67,3.08,4.3278,4.3278,0,0,0,1.32,1.94c.22-.83.4-1.53.59-2.24A12.755,12.755,0,0,1,117.08,185.94ZM54.32,147.53c-.4-.22-.76-.42-1.13-.61-1.43-.75-2.86-1.51-4.3-2.25a2,2,0,0,1-.92-.83c-.85-1.54-1.73-3.07-2.61-4.59-.15-.26-.21-.59-.55-.72-.08.1-.16.17-.22.26a26.0877,26.0877,0,0,0-2.18,3.85,5.0113,5.0113,0,0,1-2.46,2.47c-1.56.73-3.06,1.59-4.78,2.5,1.59.84,2.98,1.66,4.44,2.32a5.7965,5.7965,0,0,1,2.97,2.96,18.9364,18.9364,0,0,0,2.22,3.82.701.701,0,0,0,.37-.39c.86-1.57,1.73-3.15,2.66-4.68A2.8422,2.8422,0,0,1,49,150.48q2.175-1.095,4.32-2.24A2.2164,2.2164,0,0,0,54.32,147.53Z" transform="translate(-32.79 -41.6261)"/><path class="cls-4" d="M271.59,187.93a5.3107,5.3107,0,0,1-2.97,5.78c-1.63.77-3.96.64-5.38,1.74a14.5325,14.5325,0,0,0-1.68,2.2,13.9615,13.9615,0,0,1-3.43,2.51,26.7216,26.7216,0,0,1-4.79,2.38,23.59,23.59,0,0,1-7.87,1.45,12.6209,12.6209,0,0,1-8.07-2.72c-.59-.45-1.16-.92-1.77-1.35-.64-.46-1.06-.46-1.59.12a14.96,14.96,0,0,1-5.71,3.54,49.34,49.34,0,0,1-8.92,2.62,18.1211,18.1211,0,0,1-12.6-1.93,51.5824,51.5824,0,0,1-5.52-3.34,15.4393,15.4393,0,0,1-4.08-4.25c-.38-.6-.73-1.21-1.14-1.79a1.41,1.41,0,0,0-2.01-.54c-.55.25-1.09.51-1.64.75a9.0928,9.0928,0,0,1-6.31.42c-.71-.21-1.41-.44-2.11-.67-1.44-.49-2.21-1.72-3.05-2.84-1.08-1.44-1.07-1.48-.16-3.02,1.95-3.31,3.91-6.62,5.92-9.9.57-.93,1.19-1.83,1.74-2.78a.7005.7005,0,0,1,.95-.37c1.36.37,2.74.67,4.1,1.03,1.24.33,1.52.16,1.93-1.05a8.721,8.721,0,0,1,5.61-5.77,5.7061,5.7061,0,0,1,5.6,1c.61.47,1.17,1,1.74,1.53.74.7,1.46.46,1.73-.51a12.2394,12.2394,0,0,1,5.66-7.5,21.2764,21.2764,0,0,1,11.89-3.23,15.47,15.47,0,0,1,11.17,5.07,21.7627,21.7627,0,0,1,2.72,3.63,3.7,3.7,0,0,0,.44.6,1.13,1.13,0,0,0,1.7.06c1.84-1.84,4.22-2.49,6.64-3.02a13.08,13.08,0,0,1,6.4.01,9.8234,9.8234,0,0,1,6.82,6.12,27.1016,27.1016,0,0,1,1.24,5.56c.05.28.12.56.15.84a1.4953,1.4953,0,0,0,1.48,1.4,4.4743,4.4743,0,0,1,3.07,1.87A10.6141,10.6141,0,0,1,271.59,187.93Zm-8.67-8.88a2.4531,2.4531,0,0,0-.22-1.19,29.112,29.112,0,0,0-1.87-4.63c-1.75-3.01-5.94-4.53-9.27-3.97a10.6114,10.6114,0,0,0-5.45,2.86.3056.3056,0,0,0-.07.43,3.994,3.994,0,0,0,1.49-.63c2.05-1.04,4.16-1.81,6.5-1.17a7.78,7.78,0,0,1,4.96,3.4,20.0344,20.0344,0,0,1,1.84,4.53,2.1017,2.1017,0,0,0,.43.84A.9544.9544,0,0,0,262.92,179.05Zm-24.8-8.45a.7733.7733,0,0,0,.18-1.05,4.0409,4.0409,0,0,0-.49-.68,15.2112,15.2112,0,0,0-9.15-5.29,11.82,11.82,0,0,0-5.45.17,19.028,19.028,0,0,0-7.67,4.52,2.5277,2.5277,0,0,0-.96,1.8c.19-.05.28-.05.32-.09a20.0848,20.0848,0,0,1,6.16-4.01,9.7414,9.7414,0,0,1,3.77-.97c4.5-.11,8.39,1.24,11.38,4.76a5.3952,5.3952,0,0,0,.93.86A.77.77,0,0,0,238.12,170.6Zm-10.59,29.75c.67-.43.84-.89.55-1.28-.27-.37-.72-.36-1.42.01a21.8112,21.8112,0,0,1-8.21,2.93,16.7154,16.7154,0,0,1-7.72-.77,36.8849,36.8849,0,0,1-5.82-3.02,15.3556,15.3556,0,0,1-4.5-3.71c-.28.14-.22.35-.16.56a4.0958,4.0958,0,0,0,1.02,1.71,25.4753,25.4753,0,0,0,6.09,4.53,17.4238,17.4238,0,0,0,4.48,1.87A19.6335,19.6335,0,0,0,227.53,200.35Z" transform="translate(-32.79 -41.6261)"/><path d="M262.7,177.86a2.4531,2.4531,0,0,1,.22,1.19.9544.9544,0,0,1-1.66.47,2.1017,2.1017,0,0,1-.43-.84,20.0344,20.0344,0,0,0-1.84-4.53,7.78,7.78,0,0,0-4.96-3.4c-2.34-.64-4.45.13-6.5,1.17a3.994,3.994,0,0,1-1.49.63.3056.3056,0,0,1,.07-.43,10.6114,10.6114,0,0,1,5.45-2.86c3.33-.56,7.52.96,9.27,3.97A29.112,29.112,0,0,1,262.7,177.86Z" transform="translate(-32.79 -41.6261)"/><path d="M257.27,124.01a15.7935,15.7935,0,0,1,2.03,1.09,14.0555,14.0555,0,0,1-2.41,1.35,3.3061,3.3061,0,0,0-1.79,1.68,7.2031,7.2031,0,0,1-1.48,2.36,16.48,16.48,0,0,1-1.48-2.56,2.6541,2.6541,0,0,0-1.33-1.27c-.92-.42-1.79-.96-2.82-1.52,1.08-.59,2.04-1.15,3.04-1.63a1.9769,1.9769,0,0,0,.96-.91c.49-.92,1-1.83,1.55-2.82a9.3505,9.3505,0,0,0,1.05,1.49C255.31,122.45,255.9,123.52,257.27,124.01Zm-.36,1.81a2.214,2.214,0,0,0,1.11-.73,7.4187,7.4187,0,0,0-1.7-.92,3.1222,3.1222,0,0,1-1.6-1.58,6.0284,6.0284,0,0,0-1.16-1.67c-.35.62-.71,1.18-.98,1.78a2.6586,2.6586,0,0,1-1.48,1.41c-.6.26-1.17.61-1.98,1.04.89.46,1.54.8,2.2,1.12,1.22.6,1.58,2.01,2.17,3.15.02.02.04.05.07.05l.03-.03c.53-.72.87-1.55,1.39-2.26A4.6308,4.6308,0,0,1,256.91,125.82Z" transform="translate(-32.79 -41.6261)"/><path d="M254.08,144.14c.68.36,1.35.73,2.17,1.17a11.8882,11.8882,0,0,1-1.96,1.17q-4.215,2.22-8.43,4.42a2.2334,2.2334,0,0,0-.95.95c-1.64,2.96-3.3,5.91-4.95,8.87-.18.33-.31.71-.76.86-.1-.14-.2-.28-.29-.43-1.55-2.77-3.11-5.53-4.64-8.31a5.6612,5.6612,0,0,0-2.47-2.49c-2.84-1.41-5.63-2.93-8.43-4.41a2.3339,2.3339,0,0,1-.9-.6,11.8122,11.8122,0,0,1,2-1.16c2.53-1.34,5.05-2.69,7.6-3.97a4.6027,4.6027,0,0,0,2.03-2.04q2.37-4.26,4.76-8.5a1.0681,1.0681,0,0,1,.41-.53,2.2984,2.2984,0,0,1,.78,1.04q2.46,4.38,4.9,8.77a1.9518,1.9518,0,0,0,.8.81C248.53,141.21,251.3,142.68,254.08,144.14Zm-1.37,1.16c-.21-.13-.38-.25-.56-.35-2.31-1.21-4.62-2.43-6.94-3.62a3.5867,3.5867,0,0,1-1.65-1.55c-1.2-2.24-2.47-4.43-3.72-6.64-.15-.27-.27-.57-.64-.68-.09.14-.19.29-.27.44-1.34,2.37-2.67,4.73-4,7.1a2.1263,2.1263,0,0,1-.89,1.01c-2.17,1.1-4.32,2.23-6.48,3.36a6.4629,6.4629,0,0,0-1.71,1.07c2.68,1.41,5.27,2.78,7.87,4.12a2.6532,2.6532,0,0,1,1.2,1.12c1.29,2.35,2.62,4.68,3.93,7.01.11.19.22.36.36.58a1.5182,1.5182,0,0,0,.68-.78c1.25-2.21,2.52-4.41,3.73-6.64a3.18,3.18,0,0,1,1.49-1.41c2.33-1.19,4.63-2.41,6.94-3.62C252.28,145.7,252.57,145.62,252.71,145.3Z" transform="translate(-32.79 -41.6261)"/><path class="cls-5" d="M242.94,94.09a12.1653,12.1653,0,0,1-.67,5.7c-.38,1.06-.66,2.16-1.05,3.21a52.8948,52.8948,0,0,1-4.89,9.49c-1.02,1.61-2.03,3.22-3.11,4.79-1.56,2.27-3.25,4.44-4.87,6.66-.36.48-.78.91-1.15,1.38a.4716.4716,0,0,1-.73.1c-.7-.49-1.43-.92-2.09-1.45a42.549,42.549,0,0,1-3.58-3.14,65.972,65.972,0,0,1-7.15-8.49,65.6524,65.6524,0,0,1-5.45-9.54,68.5717,68.5717,0,0,1-3.05-7.43c-.2-.56-.45-1.1-.71-1.75,1.88-.49,3.73-.76,5.57-1.07,3.55-.61,7.12-1.11,10.7-1.45a108.4393,108.4393,0,0,1,16.71-.55C240,90.7,242.45,91.03,242.94,94.09Z" transform="translate(-32.79 -41.6261)"/><path d="M238.3,169.55a.8036.8036,0,0,1-1.16,1.07,5.3952,5.3952,0,0,1-.93-.86c-2.99-3.52-6.88-4.87-11.38-4.76a9.7414,9.7414,0,0,0-3.77.97,20.0848,20.0848,0,0,0-6.16,4.01c-.04.04-.13.04-.32.09a2.5277,2.5277,0,0,1,.96-1.8,19.028,19.028,0,0,1,7.67-4.52,11.82,11.82,0,0,1,5.45-.17,15.2112,15.2112,0,0,1,9.15,5.29A4.0409,4.0409,0,0,1,238.3,169.55Z" transform="translate(-32.79 -41.6261)"/><path class="cls-6" d="M235.95,217.72c.05.06.1.13.15.19-.69.78-1.34,1.62-2.09,2.35-1.27,1.22-2.48,2.51-3.77,3.71a99.63,99.63,0,0,1-10.69,8.66,103.3481,103.3481,0,0,1-20.31,11.08,106.0406,106.0406,0,0,1-20.48,6.04,107.6126,107.6126,0,0,1-25.52,1.7,109.3525,109.3525,0,0,1-26.73-4.7,110.9478,110.9478,0,0,1-17.66-7.09,114.0692,114.0692,0,0,1-11.53-6.69,110.7864,110.7864,0,0,1-11.84-9.07,114.2322,114.2322,0,0,1-8.56-8.34c-1.65-1.8-3.21-3.67-4.77-5.53a2.7494,2.7494,0,0,1-.66-1.06,60.9921,60.9921,0,0,0,13.48-3.26c.19.47-.07.78-.11,1.11a8.6751,8.6751,0,0,0,1.49,5.83,2.0786,2.0786,0,0,0,.27.32.86.86,0,0,0,1.49-.17,3.967,3.967,0,0,0,.3-.9c.23-.93.48-1.84.79-2.75a7.9515,7.9515,0,0,1,4.38-4.64,18.4175,18.4175,0,0,1,9.08-1.66c2.01.12,4.02.26,6.03.35,5.42.26,10.18-1.6,14.54-4.65a18.732,18.732,0,0,0,2.92-3.05c.07-.08.14-.16.18-.21.35-.05.49.19.65.35,1.02,1.09,2.39,1.75,3.35,2.91a1.2838,1.2838,0,0,0,1.38.27,62.3313,62.3313,0,0,0,7.37-1.92,77.6462,77.6462,0,0,0,9.49-3.92c.19-.09.39-.17.57-.27a.8486.8486,0,0,1,1.13.19,12.1449,12.1449,0,0,0,1.84,1.59c.36.24.46.5.18.87-2.22,2.93-4.16,6.05-6.28,9.05-1.01,1.44-1.94,2.94-2.87,4.45-.66,1.07-.24,1.86.99,2,.35.04.71.07,1.06.08,4.45.06,8.89.54,13.34.56,2.93.01,5.86-.06,8.8-.09a2.0863,2.0863,0,0,0,1.9-1.12c.47-.79.91-1.58,1.32-2.41.34-.67.36-.66,1.02-.32,2.48,1.27,4.98,2.49,7.54,3.6a103.1937,103.1937,0,0,0,23.58,7.07,92.6008,92.6008,0,0,0,20.16,1.22,72.8565,72.8565,0,0,0,12.38-1.61C235.46,217.79,235.71,217.76,235.95,217.72Zm-116.7,8.33a14.6694,14.6694,0,0,1-2.29-1.31c-.6-.5-.71-1.41-1.33-2.03a11.6308,11.6308,0,0,0-.65,1.15,2.4894,2.4894,0,0,1-1.37,1.37,3.7443,3.7443,0,0,0-1.35.87,12.9769,12.9769,0,0,0,1.35.76,2.4588,2.4588,0,0,1,1.37,1.37,2.8686,2.8686,0,0,0,.75,1.13,9.3882,9.3882,0,0,1,1.25-2.02A11.175,11.175,0,0,1,119.25,226.05Zm-8.35-6.02a19.6846,19.6846,0,0,0-2.36-1.26,6.5945,6.5945,0,0,1-3.84-3.66c-.34-.76-.8-1.46-1.26-2.27a22.2262,22.2262,0,0,0-2.22,3.68,3.2227,3.2227,0,0,1-1.64,1.53c-1.26.59-2.45,1.29-3.8,2.02,1.31.71,2.45,1.4,3.65,1.95a3.6352,3.6352,0,0,1,1.92,1.84,21.3282,21.3282,0,0,0,2.1,3.48c.61-1.12,1.17-2.13,1.72-3.14a4.8549,4.8549,0,0,1,2.25-2.27A20.4171,20.4171,0,0,0,110.9,220.03Z" transform="translate(-32.79 -41.6261)"/><path d="M228.08,199.07c.29.39.12.85-.55,1.28a19.6335,19.6335,0,0,1-15.69,2.83,17.4238,17.4238,0,0,1-4.48-1.87,25.4753,25.4753,0,0,1-6.09-4.53,4.0958,4.0958,0,0,1-1.02-1.71c-.06-.21-.12-.42.16-.56a15.3556,15.3556,0,0,0,4.5,3.71,36.8849,36.8849,0,0,0,5.82,3.02,16.7154,16.7154,0,0,0,7.72.77,21.8112,21.8112,0,0,0,8.21-2.93C227.36,198.71,227.81,198.7,228.08,199.07Z" transform="translate(-32.79 -41.6261)"/><path class="cls-7" d="M225.22,126.61c.64.39.65.46.15,1.04-2.18,2.5-4.26,5.08-6.55,7.49-1.04,1.1-2.04,2.24-3.08,3.36-2.44,2.64-4.97,5.21-7.52,7.75-3.93,3.91-8.03,7.64-12.19,11.3q-3.975,3.495-8.09,6.83c-4.19,3.41-8.49,6.67-12.86,9.84q-3.255,2.37-6.59,4.63c-5.17,3.52-10.51,6.75-15.99,9.75-2.51,1.37-5.08,2.62-7.69,3.8-.5.23-.9.32-1.32-.13-.21-.24-.5-.39-.73-.61-2.56-2.53-5.09-5.09-7.49-7.78-3.36-3.77-6.58-7.65-9.58-11.71-1.13-1.53-2.22-3.1-3.23-4.71-1.54-2.45-3.06-4.91-4.45-7.46-1.59-2.9-3.3-5.75-4.86-8.67-1.47-2.78-2.82-5.61-4.38-8.34a.7253.7253,0,0,1,.1-1.01q2.625-2.775,5.49-5.3c1.08-.95,2.16-1.92,3.26-2.85A146.86,146.86,0,0,1,131.2,123.7a191.9553,191.9553,0,0,1,17.53-10.26,214.1852,214.1852,0,0,1,20.22-9.24,217.7393,217.7393,0,0,1,29.24-9.26c1.43-.35,2.89-.64,4.34-.96.17-.03.34-.07.51-.11a.3567.3567,0,0,1,.4.26,2.7457,2.7457,0,0,1,.11.41,52.8421,52.8421,0,0,0,3.24,9.06,55.5014,55.5014,0,0,0,5.98,10.45,64.3974,64.3974,0,0,0,5.76,6.9A34.8441,34.8441,0,0,0,225.22,126.61Zm-32.47,7.54a12.3875,12.3875,0,0,0-.18-7.38,11.0924,11.0924,0,0,0-5.6-6.33,21.0192,21.0192,0,0,0-9.28-2.25,44.4458,44.4458,0,0,0-15.91,2.58,60.0472,60.0472,0,0,0-9.48,4.16,54.5052,54.5052,0,0,0-14.27,10.83,38.0489,38.0489,0,0,0-3.25,4.04,22.6664,22.6664,0,0,0-4.28,10.13c-.73,5.65,2.05,10.06,7.09,12.34a24.3232,24.3232,0,0,0,10.31,1.86,48.1381,48.1381,0,0,0,7.69-.94,56.2492,56.2492,0,0,0,10.75-3.49,57.5976,57.5976,0,0,0,17.27-11.3,42.6337,42.6337,0,0,0,3.23-3.5A27.4161,27.4161,0,0,0,192.75,134.15Z" transform="translate(-32.79 -41.6261)"/><path class="cls-8" d="M197.09,159.78a17.4175,17.4175,0,0,1-1.01,1.52c-1.36,1.63-2.41,3.48-3.6,5.23-1.67,2.44-3.19,4.99-4.78,7.49q-3.36,5.325-6.71,10.65c-.05.09-.11.18-.16.28-1.43,2.51-2.88,5.01-4.3,7.53-2.28,4.06-4.53,8.14-6.69,12.26-.67,1.28-1.35,2.56-1.97,3.86a1.2064,1.2064,0,0,1-1.2.8,131.2564,131.2564,0,0,1-15.99-.25c-1.41-.1-2.82-.15-4.23-.23-.23-.01-.49.07-.69-.13-.06-.28.13-.47.26-.66,1.72-2.54,3.42-5.1,5.18-7.62,2.03-2.92,4.06-5.85,6.2-8.7,1.48-1.96,2.87-4.3,4.67-5.97a39.8378,39.8378,0,0,1,5.4-3.68q4.8-3.15,9.44-6.52c.11-.08.24-.14.39-.23.14.39-.11.64-.24.89a134.0129,134.0129,0,0,1-7.74,12.86c-1.75,2.57-3.4,5.2-5.07,7.82a4.3768,4.3768,0,0,0-.49,1.05.8172.8172,0,0,0,.39.91.75.75,0,0,0,.89.01,1.9257,1.9257,0,0,0,.68-.65c.52-.75,1.05-1.5,1.55-2.27,1.65-2.55,3.26-5.12,4.93-7.66a73.0831,73.0831,0,0,0,4.98-8.84,24.0631,24.0631,0,0,0,2.08-5.19,1.4979,1.4979,0,0,1,.66-.91c3.51-2.56,6.86-5.33,10.24-8.05,1.48-1.19,2.91-2.46,4.37-3.69A18.327,18.327,0,0,1,197.09,159.78Z" transform="translate(-32.79 -41.6261)"/><path d="M192.57,126.77a12.3875,12.3875,0,0,1,.18,7.38,27.4161,27.4161,0,0,1-5.91,10.75,42.6337,42.6337,0,0,1-3.23,3.5,57.5976,57.5976,0,0,1-17.27,11.3,56.2492,56.2492,0,0,1-10.75,3.49,48.1381,48.1381,0,0,1-7.69.94,24.3232,24.3232,0,0,1-10.31-1.86c-5.04-2.28-7.82-6.69-7.09-12.34a22.6664,22.6664,0,0,1,4.28-10.13,38.0489,38.0489,0,0,1,3.25-4.04,54.5052,54.5052,0,0,1,14.27-10.83,60.0472,60.0472,0,0,1,9.48-4.16,44.4458,44.4458,0,0,1,15.91-2.58,21.0192,21.0192,0,0,1,9.28,2.25A11.0924,11.0924,0,0,1,192.57,126.77Zm-1.05,3.77a9.1367,9.1367,0,0,0-4.12-7.83,14.9646,14.9646,0,0,0-6.04-2.42,31.1067,31.1067,0,0,0-12.31.29,56.4191,56.4191,0,0,0-22.16,9.88c-1.14.83-2.23,1.72-3.31,2.63a37.592,37.592,0,0,0-8.44,9.69c-.16.28-.33.54-.49.82a15.5685,15.5685,0,0,0-2.31,9.09,8.6606,8.6606,0,0,0,2.03,5.14,12.532,12.532,0,0,0,6.15,3.75,23.9463,23.9463,0,0,0,7.18.9,29.737,29.737,0,0,0,5.84-.5,56.3538,56.3538,0,0,0,24.18-10.64c1.14-.84,2.22-1.75,3.29-2.67a38.5708,38.5708,0,0,0,7.82-9.12c.39-.64.59-1.36.95-2A14.7962,14.7962,0,0,0,191.52,130.54Z" transform="translate(-32.79 -41.6261)"/><path class="cls-9" d="M187.4,122.71a9.1367,9.1367,0,0,1,4.12,7.83,14.7962,14.7962,0,0,1-1.74,7.01c-.36.64-.56,1.36-.95,2a38.5708,38.5708,0,0,1-7.82,9.12c-1.07.92-2.15,1.83-3.29,2.67a56.3538,56.3538,0,0,1-24.18,10.64,29.737,29.737,0,0,1-5.84.5,23.9463,23.9463,0,0,1-7.18-.9,12.532,12.532,0,0,1-6.15-3.75,8.6606,8.6606,0,0,1-2.03-5.14,15.5685,15.5685,0,0,1,2.31-9.09c.16-.28.33-.54.49-.82a37.592,37.592,0,0,1,8.44-9.69c1.08-.91,2.17-1.8,3.31-2.63a56.4191,56.4191,0,0,1,22.16-9.88,31.1067,31.1067,0,0,1,12.31-.29A14.9646,14.9646,0,0,1,187.4,122.71Zm-9.96,1.6a.915.915,0,0,0-.59-.91,1.9766,1.9766,0,0,0-.93-.17,27.0782,27.0782,0,0,0-6.95.58,51.53,51.53,0,0,0-16.14,6.71c-1.26.79-2.5,1.6-3.7,2.47a30.0009,30.0009,0,0,0-8.17,7.91c-.19.29-.42.56-.62.85a5.5541,5.5541,0,0,0-1.07,2.11c.06.04.13.08.19.12.59-.69,1.18-1.38,1.77-2.08a29.774,29.774,0,0,1,2.25-2.52,56.227,56.227,0,0,1,9.18-6.78,52.985,52.985,0,0,1,13.07-5.94,31.6864,31.6864,0,0,1,10.23-1.52,2.9582,2.9582,0,0,0,.73-.04A.8721.8721,0,0,0,177.44,124.31Z" transform="translate(-32.79 -41.6261)"/><path d="M176.85,123.4a.915.915,0,0,1,.59.91.8721.8721,0,0,1-.75.79,2.9582,2.9582,0,0,1-.73.04,31.6864,31.6864,0,0,0-10.23,1.52,52.985,52.985,0,0,0-13.07,5.94,56.227,56.227,0,0,0-9.18,6.78,29.774,29.774,0,0,0-2.25,2.52c-.59.7-1.18,1.39-1.77,2.08-.06-.04-.13-.08-.19-.12a5.5541,5.5541,0,0,1,1.07-2.11c.2-.29.43-.56.62-.85a30.0009,30.0009,0,0,1,8.17-7.91c1.2-.87,2.44-1.68,3.7-2.47a51.53,51.53,0,0,1,16.14-6.71,27.0782,27.0782,0,0,1,6.95-.58A1.9766,1.9766,0,0,1,176.85,123.4Z" transform="translate(-32.79 -41.6261)"/><path class="cls-6" d="M166.05,43.5c.94.11,1.89.2,2.84.3-1.57.47-3.15.78-4.71,1.22a67.4285,67.4285,0,0,0-10.1,3.78,69.3739,69.3739,0,0,0-15.2,9.54,67.1541,67.1541,0,0,0-9.82,9.91,81.3721,81.3721,0,0,0-5.1,7.15c-1.65,2.6-2.95,5.38-4.35,8.11a.7784.7784,0,0,1-.39.45c-1.04-1.82-2-3.69-3.16-5.42-.25-.03-.32.16-.4.3-.98,1.72-1.96,3.43-2.93,5.16-1.36,2.39-2.7,4.79-4.05,7.19a4.1618,4.1618,0,0,1-1.76,1.74c-4.39,2.27-8.75,4.58-13.12,6.88a1.8926,1.8926,0,0,0-.34.26c1.05.57,2.05,1.13,3.06,1.66,2.31,1.22,4.63,2.42,6.94,3.63,1.16.61,2.29,1.25,3.47,1.82a3.8446,3.8446,0,0,1,1.71,1.65c.93,1.69,1.85,3.39,2.84,5.18-.84.1-1.59.2-2.35.29-4.53.52-9.05,1.03-13.57,1.56-1.65.19-3.3.4-4.94.6a1.3828,1.3828,0,0,0-1.4,1.44,15.4581,15.4581,0,0,0,.16,4.02c.45,2.71.95,5.42,1.46,8.13.35,1.88.48,3.78.75,5.67.07.42.11.84.19,1.26a1.397,1.397,0,0,0,1.69,1.34c1.05-.05,2.11-.17,3.16-.26,3.24-.26,6.49-.49,9.69-1.03,1.71-.28,3.4-.63,5.1-.96.41-.07.82-.15,1.34-.25a4.4978,4.4978,0,0,1-1.12,1.26,74.2688,74.2688,0,0,0-5.51,5.71c-1.83,2.11-3.49,4.35-5.12,6.61-.16.23-.32.47-.49.69a3.2708,3.2708,0,0,0-.58,3.11,40.2722,40.2722,0,0,0,1.73,5.77c.17.4.06.59-.34.67-.45.08-.9.17-1.36.23-6.06.78-12.06,1.89-18.01,3.27a21.1218,21.1218,0,0,0-8.21,3.52,11.7225,11.7225,0,0,0-4.64,7.56c-.24,1.4-.32,2.81-.42,4.22A8.4558,8.4558,0,0,1,67.22,183a8.7115,8.7115,0,0,1-3.62,3c-.65.28-1.29.56-1.95.83a2.2159,2.2159,0,0,0-.94.65.7888.7888,0,0,0-.15.89.76.76,0,0,0,.77.45c.28-.01.56-.07.84-.07a6.3547,6.3547,0,0,1,5.23,2.06,3.5867,3.5867,0,0,1,.85,1.68,9.1162,9.1162,0,0,1-.81,6.17,18.5387,18.5387,0,0,1-1.46,2.67,10.0954,10.0954,0,0,1-1.6-2.23c-1.6-2.7-3.2-5.4-4.6-8.22-1.3-2.59-2.45-5.24-3.59-7.9-1.08-2.5-1.88-5.09-2.78-7.65a101.6057,101.6057,0,0,1-3.05-11.89,96.15,96.15,0,0,1-1.53-10.26c-.11-1.1.07-1.36,1.1-1.89,2.2-1.13,4.38-2.29,6.57-3.43a3.4,3.4,0,0,0,.27-.23,1.4871,1.4871,0,0,0-.66-.48q-3.225-1.68-6.47-3.37a2.238,2.238,0,0,1-1.2-2.19c.08-3.15.27-6.28.61-9.41a99.8573,99.8573,0,0,1,3.56-17.3,85.461,85.461,0,0,1,3.07-8.79c.86-2.09,1.76-4.16,2.76-6.19a103.1217,103.1217,0,0,1,5.97-10.6c1.74-2.7,3.63-5.3,5.63-7.82a99.9687,99.9687,0,0,1,8.81-9.71,96.0242,96.0242,0,0,1,8.66-7.47,103.3691,103.3691,0,0,1,24.3-13.86,107.3,107.3,0,0,1,16.13-5.05,112.391,112.391,0,0,1,27.87-2.66C159.23,42.83,162.65,43.07,166.05,43.5ZM82.7,102.82a3.6769,3.6769,0,0,0,1.39-.9,5.1913,5.1913,0,0,1-3.61-3.21,5.305,5.305,0,0,1-3.57,3.3,13.0854,13.0854,0,0,1,2.31,1.39,9.3781,9.3781,0,0,1,1.27,1.97,2.6572,2.6572,0,0,0,.69-1.04A2.6028,2.6028,0,0,1,82.7,102.82Z" transform="translate(-32.79 -41.6261)"/><path class="cls-8" d="M148.88,111.03a2.8306,2.8306,0,0,1,.42,0,19.4453,19.4453,0,0,1-2.76,1.58c-2.39,1.23-4.71,2.56-7.03,3.91-2.07,1.22-4.11,2.49-6.13,3.78a5.1286,5.1286,0,0,1-2.43.59c-4.94.49-9.86,1.05-14.77,1.71l-.13-1.02c1.25-1.91,2.33-3.89,3.38-5.89a1.6029,1.6029,0,0,1,1.45-.97c5.19-.52,10.39-1.07,15.58-1.68C140.62,112.54,144.77,111.85,148.88,111.03Z" transform="translate(-32.79 -41.6261)"/><path class="cls-5" d="M141.58,192.88a1.0074,1.0074,0,0,1,.48.7,52.36,52.36,0,0,1-10.09,3.2,1.4219,1.4219,0,0,1-1.26-.37,73.3341,73.3341,0,0,1-10.24-10.38c-1.92-2.49-3.8-5.01-5.68-7.52q-3.48-4.665-6.56-9.61c-.28-.45-.52-.93-.76-1.4-1.6-3.03-3.03-6.13-4.51-9.22a30.4389,30.4389,0,0,1-2-5.45,2.2475,2.2475,0,0,1,.14-1.63,8.3192,8.3192,0,0,1,1.53-2.27,6.0417,6.0417,0,0,0,.62-.72c1.36-1.81,2.97-3.4,4.57-5.2.34.7.66,1.3.92,1.93.34.81.64,1.64.94,2.47a82.9355,82.9355,0,0,0,4.8,10.13c1.54,2.89,3.15,5.76,4.84,8.57a102.0626,102.0626,0,0,0,6.12,9.02c2.74,3.63,5.72,7.08,8.76,10.47,1.71,1.92,3.54,3.74,5.4,5.53C140.24,191.74,140.93,192.29,141.58,192.88Z" transform="translate(-32.79 -41.6261)"/><path class="cls-4" d="M133.38,99.71c.15.08.29.19.58.37-1.87.99-3.58,1.89-5.29,2.79q-3,1.575-6,3.14a1.5315,1.5315,0,0,0-.62.69c-1.53,2.74-3.08,5.47-4.59,8.22a16.3226,16.3226,0,0,0-1.38,2.39,10.7673,10.7673,0,0,1-1.44-2.15c-1.52-2.86-3.2-5.64-4.75-8.48a2.3781,2.3781,0,0,0-1.1-.94q-4.785-2.49-9.56-4.99a4.04,4.04,0,0,1-1.11-.7,2.7737,2.7737,0,0,1,1.02-.65c3.22-1.69,6.43-3.37,9.66-5.04a2.9415,2.9415,0,0,0,1.25-1.22c1.91-3.41,3.86-6.8,5.77-10.17a.3.3,0,0,1,.39.17c.67,1.16,1.36,2.31,2.02,3.47q1.905,3.36,3.78,6.73a2.1912,2.1912,0,0,0,.98.9C126.47,96.04,129.92,97.88,133.38,99.71Z" transform="translate(-32.79 -41.6261)"/><path class="cls-8" d="M130.36,122.02c.08.3-.17.35-.31.45-3.49,2.33-6.87,4.83-10.18,7.41-1.22.96-2.4,1.98-3.59,2.97a1.6167,1.6167,0,0,1-.9.5,60.8484,60.8484,0,0,0-7.1,1.21,121.1951,121.1951,0,0,1-13.02,1.62c-1.59.13-1.6.11-1.76-1.5a97.9612,97.9612,0,0,0-1.77-11.3,27.3924,27.3924,0,0,1-.57-4.62c-.03-.51.11-.75.67-.82,3.51-.41,7.01-.86,10.51-1.28,2.84-.33,5.68-.63,8.52-.95a4.52,4.52,0,0,0,.53-.06c.77-.18,1.19.13,1.56.84.82,1.59,1.76,3.13,2.66,4.69.09.14.14.33.44.4l.13,1.02c-2.43.31-4.86.66-7.29,1.02-1.12.16-2.24.28-3.36.43a2.7863,2.7863,0,0,0-.72.14.9861.9861,0,0,0-.65,1,.9422.9422,0,0,0,.91.87,4.0973,4.0973,0,0,0,1.05-.07c6.03-1.19,12.09-2.13,18.17-2.98C126.31,122.72,128.32,122.35,130.36,122.02Z" transform="translate(-32.79 -41.6261)"/><path class="cls-10" d="M124.98,193.85c.67.67.66.66.04,1.29a22.0338,22.0338,0,0,1-13.01,6.26,20.1793,20.1793,0,0,1-4.66-.03,43.2226,43.2226,0,0,0-7.19-.3,17.2889,17.2889,0,0,0-9.12,3.02,7.66,7.66,0,0,0-2.23,2.51,12.7892,12.7892,0,0,0-1.46,3.5c-.04.2-.03.44-.38.55a7.8438,7.8438,0,0,1,.35-5.64c.11-.23.26-.43.36-.65a.8808.8808,0,0,0-1.22-1.2,16.3662,16.3662,0,0,1-1.53.71,67.6515,67.6515,0,0,1-14.19,3.34c-2.89.44-5.78.91-8.68,1.36a5.5642,5.5642,0,0,1-1.78.03c.5-.31,1.01-.6,1.51-.92,3.54-2.24,6.44-5.04,7.86-9.11a11.595,11.595,0,0,0,.62-5.63,6.0926,6.0926,0,0,0-4.33-5.12,2.1775,2.1775,0,0,1-1.05-.43c.73-.53,1.51-.96,2.19-1.54a9.95,9.95,0,0,0,3.31-5.87c.32-1.6.42-3.22.63-4.83a12.6028,12.6028,0,0,1,.68-2.77,10.4874,10.4874,0,0,1,4.82-5.43c2.49-1.43,5.27-1.95,8.03-2.55,4.73-1.04,9.54-1.57,14.3-2.43,1.07-.2,2.16-.33,3.23-.53a.7813.7813,0,0,1,1.03.61c.26.76.62,1.5.91,2.25a45.4636,45.4636,0,0,0,2.38,4.73,1.7094,1.7094,0,0,1,.35.98,4.006,4.006,0,0,1-2.33-.08c-.7-.24-1.41-.45-2.09-.74-3.77-1.6-7.7-1.61-11.67-1.2a2.573,2.573,0,0,0-1.09.37.9405.9405,0,0,0-.52.97.8814.8814,0,0,0,.77.77c1.25.23,2.5.44,3.75.67a7.8932,7.8932,0,0,1,2.91.9c.57.36.6.52.2,1.08a3.5594,3.5594,0,0,1-1.83,1.36,22.3677,22.3677,0,0,1-3.4.8c-2.12.37-4.22.85-6.31,1.35a12.8979,12.8979,0,0,0-6.67,3.87c-.77.83-1.56,1.63-2.33,2.46a3.9548,3.9548,0,0,0-.82,1.23,1.2069,1.2069,0,0,0,1.21,1.79c.84.02,1.69-.03,2.54-.06a5.1564,5.1564,0,0,1,3.61,1.54,1.2817,1.2817,0,0,1,.26,1.97,8.568,8.568,0,0,1-6.67,4.14,4.4073,4.4073,0,0,0-1.35.19.8882.8882,0,0,0-.35,1.53,4.3122,4.3122,0,0,0,1.31.88,14.8027,14.8027,0,0,0,11,1.11,29.2822,29.2822,0,0,0,4.93-2.17,20.9735,20.9735,0,0,1,10.93-2.39,27.6,27.6,0,0,1,3.14.45,2.52,2.52,0,0,1,2.02,1.65,8.2013,8.2013,0,0,0,2.75,3.29,1.6765,1.6765,0,0,0,.77.34c.66.08,1-.19,1.02-.87a12.8675,12.8675,0,0,1,3.91-8.54,6.0639,6.0639,0,0,1,1.86-1.2.7451.7451,0,0,1,1.08.26c.3.42.71.78,1.04,1.19A58.5424,58.5424,0,0,0,124.98,193.85Z" transform="translate(-32.79 -41.6261)"/><path d="M116.96,224.74a14.6694,14.6694,0,0,0,2.29,1.31,11.175,11.175,0,0,0-2.27,1.29,9.3882,9.3882,0,0,0-1.25,2.02,2.8686,2.8686,0,0,1-.75-1.13,2.4588,2.4588,0,0,0-1.37-1.37,12.9769,12.9769,0,0,1-1.35-.76,3.7443,3.7443,0,0,1,1.35-.87,2.4894,2.4894,0,0,0,1.37-1.37,11.6308,11.6308,0,0,1,.65-1.15C116.25,223.33,116.36,224.24,116.96,224.74Zm1.42,1.28a4.4564,4.4564,0,0,1-2.68-2.64,9.0216,9.0216,0,0,1-1.05,1.66c-.42.43-1.12.52-1.7,1.08a4.3514,4.3514,0,0,1,2.73,2.49A4.87,4.87,0,0,1,118.38,226.02Z" transform="translate(-32.79 -41.6261)"/><path class="cls-11" d="M117.22,184.97c.41.55.42.61-.14.97a12.755,12.755,0,0,0-5.51,7.74c-.19.71-.37,1.41-.59,2.24a4.3278,4.3278,0,0,1-1.32-1.94,4.2189,4.2189,0,0,0-3.67-3.08,20.6524,20.6524,0,0,0-11.36.75,37.2459,37.2459,0,0,0-5.07,2.39,13.7857,13.7857,0,0,1-6.03,1.81,13.629,13.629,0,0,1-5.29-.84c-.15-.06-.35-.09-.4-.39.33-.11.68-.23,1.04-.33a9.3136,9.3136,0,0,0,6.13-5.14,2.2092,2.2092,0,0,0-.06-2.21,6.4611,6.4611,0,0,0-6.03-3.22c-.34-.01-.67.17-1.01.03-.01-.06-.03-.11-.02-.13,1.67-1.71,3.19-3.59,5.42-4.65a21.88,21.88,0,0,1,4.53-1.43c2.06-.48,4.14-.89,6.21-1.34a11.7048,11.7048,0,0,0,2.5-.85,4.067,4.067,0,0,0,2.04-2.2,2.0472,2.0472,0,0,0-.84-2.84c-.22-.15-.45-.3-.86-.59a9.8273,9.8273,0,0,1,3.6.57c.97.31,1.92.71,2.89,1.03,1.28.42,2.57.82,3.88.07.3-.17.45.02.6.25.27.41.58.8.83,1.22,1.43,2.43,3.12,4.7,4.74,7.01C114.65,181.6,115.95,183.28,117.22,184.97Z" transform="translate(-32.79 -41.6261)"/><path d="M108.54,218.77a19.6846,19.6846,0,0,1,2.36,1.26,20.4171,20.4171,0,0,1-3.48,1.9,4.8549,4.8549,0,0,0-2.25,2.27c-.55,1.01-1.11,2.02-1.72,3.14a21.3282,21.3282,0,0,1-2.1-3.48,3.6352,3.6352,0,0,0-1.92-1.84c-1.2-.55-2.34-1.24-3.65-1.95,1.35-.73,2.54-1.43,3.8-2.02a3.2227,3.2227,0,0,0,1.64-1.53,22.2262,22.2262,0,0,1,2.22-3.68c.46.81.92,1.51,1.26,2.27A6.5945,6.5945,0,0,0,108.54,218.77Zm-1.18,2.37a5.7327,5.7327,0,0,0,1.95-1.11c-1.13-.61-2.2-1.21-3.29-1.77a2.0862,2.0862,0,0,1-.94-.94c-.5-.97-1.05-1.91-1.68-3.04-.61,1.02-1.18,1.87-1.63,2.78a3.18,3.18,0,0,1-1.55,1.5,19.1183,19.1183,0,0,0-2.67,1.45c.14.34.43.41.67.54.78.42,1.55.84,2.34,1.22a2.1273,2.1273,0,0,1,1.03,1.02,30.2562,30.2562,0,0,0,1.83,3.04,14.8471,14.8471,0,0,0,.91-1.66A5.375,5.375,0,0,1,107.36,221.14Z" transform="translate(-32.79 -41.6261)"/><path class="cls-12" d="M109.31,220.03a5.7327,5.7327,0,0,1-1.95,1.11,5.375,5.375,0,0,0-3.03,3.03,14.8471,14.8471,0,0,1-.91,1.66,30.2562,30.2562,0,0,1-1.83-3.04,2.1273,2.1273,0,0,0-1.03-1.02c-.79-.38-1.56-.8-2.34-1.22-.24-.13-.53-.2-.67-.54a19.1183,19.1183,0,0,1,2.67-1.45,3.18,3.18,0,0,0,1.55-1.5c.45-.91,1.02-1.76,1.63-2.78.63,1.13,1.18,2.07,1.68,3.04a2.0862,2.0862,0,0,0,.94.94C107.11,218.82,108.18,219.42,109.31,220.03Z" transform="translate(-32.79 -41.6261)"/><path d="M94.59,254.9a2.1333,2.1333,0,0,1,.3.25,7.5974,7.5974,0,0,1-1.72.96q-2.655,1.44-5.34,2.8a2.3912,2.3912,0,0,0-1.02,1.02c-1.13,2.03-2.28,4.05-3.43,6.08a1.2253,1.2253,0,0,1-.51.63c-.4-.64-.83-1.28-1.21-1.93-.92-1.59-1.71-3.24-2.71-4.79a2.8488,2.8488,0,0,0-1.12-1.06c-1.97-1.02-3.93-2.07-5.89-3.1-.31-.17-.61-.35-.97-.55a7.2553,7.2553,0,0,1,2-1.23c1.3-.71,2.59-1.45,3.94-2.03a5.5768,5.5768,0,0,0,2.77-2.75c.61-1.12,1.21-2.24,1.83-3.34.41-.73.87-1.44,1.3-2.14.38-.02.41.28.52.48,1.15,2.02,2.31,4.04,3.43,6.08a2.7642,2.7642,0,0,0,1.27,1.19C90.23,252.59,92.4,253.75,94.59,254.9Zm-2.14.19c-.5-.28-.93-.52-1.36-.74-1.34-.7-2.68-1.41-4.03-2.09a2.5177,2.5177,0,0,1-1.11-1.08c-.88-1.61-1.8-3.19-2.72-4.78-.07-.13-.1-.35-.38-.3a53.0056,53.0056,0,0,0-2.9,5.01,1.9664,1.9664,0,0,1-.81.93c-1.02.48-2,1.03-3,1.56-.91.49-1.81.99-2.85,1.56,1.47.77,2.71,1.53,4.04,2.09a6.4043,6.4043,0,0,1,3.52,3.54,15.967,15.967,0,0,0,2.16,3.57c.94-1.89,1.98-3.53,2.92-5.22a2.4961,2.4961,0,0,1,1.09-1.09c1.39-.69,2.76-1.42,4.13-2.14A4.73,4.73,0,0,0,92.45,255.09Z" transform="translate(-32.79 -41.6261)"/><path d="M84.09,101.92a3.6769,3.6769,0,0,1-1.39.9,2.6028,2.6028,0,0,0-1.52,1.51,2.6572,2.6572,0,0,1-.69,1.04,9.3781,9.3781,0,0,0-1.27-1.97,13.0854,13.0854,0,0,0-2.31-1.39,5.305,5.305,0,0,0,3.57-3.3A5.1913,5.1913,0,0,0,84.09,101.92Zm-2.53,1.14c.4-.46,1.16-.46,1.71-1.16-1.46-.23-2.13-1.29-2.75-2.47a8.2267,8.2267,0,0,1-1.05,1.66c-.44.41-1.13.53-1.7,1.05a4.0079,4.0079,0,0,1,2.67,2.64A13.929,13.929,0,0,1,81.56,103.06Z" transform="translate(-32.79 -41.6261)"/><path class="cls-1" d="M53.19,146.92c.37.19.73.39,1.13.61a2.2164,2.2164,0,0,1-1,.71q-2.145,1.14-4.32,2.24a2.8422,2.8422,0,0,0-1.17,1.16c-.93,1.53-1.8,3.11-2.66,4.68a.701.701,0,0,1-.37.39,18.9364,18.9364,0,0,1-2.22-3.82,5.7965,5.7965,0,0,0-2.97-2.96c-1.46-.66-2.85-1.48-4.44-2.32,1.72-.91,3.22-1.77,4.78-2.5a5.0113,5.0113,0,0,0,2.46-2.47,26.0877,26.0877,0,0,1,2.18-3.85c.06-.09.14-.16.22-.26.34.13.4.46.55.72.88,1.52,1.76,3.05,2.61,4.59a2,2,0,0,0,.92.83C50.33,145.41,51.76,146.17,53.19,146.92Z" transform="translate(-32.79 -41.6261)"/></svg>