<svg id="图层_1" data-name="图层 1" xmlns="http://www.w3.org/2000/svg" viewBox="0 0 253.1856 258.5149"><defs><style>.cls-1{fill:#f4fafe;}.cls-2{fill:#e8f3fc;}.cls-3{fill:#231815;}.cls-4{fill:#5a99d3;}.cls-5{fill:#f5b4b4;}.cls-6{fill:#f9d0d0;}.cls-7{fill:#fff;}</style></defs><path class="cls-1" d="M265.02,118.19a1.84,1.84,0,0,1,1.93,2.19,7.3579,7.3579,0,0,1-.61,2.34,10.8776,10.8776,0,0,1-2.43,3.63,45.5611,45.5611,0,0,0-6.81,8.11,12.6949,12.6949,0,0,0-1.49,3.65,8.9863,8.9863,0,0,1-.57-2.54,19.6085,19.6085,0,0,1,1.15-10.66,10.4049,10.4049,0,0,1,6.34-6.31A6.0445,6.0445,0,0,1,265.02,118.19Z" transform="translate(-17.822 -25.1865)"/><path class="cls-1" d="M214.43,36c.05,2.86-.43,5.68-.27,8.79a43.8335,43.8335,0,0,1-5.23-5.74,17.7609,17.7609,0,0,1-3.22-6.97,3.8674,3.8674,0,0,1,3.06-4.68,2.7864,2.7864,0,0,1,2.48.6,7.5789,7.5789,0,0,1,2.44,3.58A14.1315,14.1315,0,0,1,214.43,36Z" transform="translate(-17.822 -25.1865)"/><path class="cls-1" d="M205.04,81.48a1.4748,1.4748,0,0,1,0,.96c-2.07-2.03-4.53-3.33-6.81-4.89a26.1868,26.1868,0,0,1-9.12-10.51,6.3583,6.3583,0,0,1-.68-4.37,3.2591,3.2591,0,0,1,4.09-2.57,9.6454,9.6454,0,0,1,3.97,2.04,17.6529,17.6529,0,0,1,5.01,6.25,32.6169,32.6169,0,0,1,2.83,9.35C204.51,79,204.78,80.24,205.04,81.48Z" transform="translate(-17.822 -25.1865)"/><path class="cls-1" d="M102.55,273.36a56.8946,56.8946,0,0,1-2.72,6.16,5.5145,5.5145,0,0,1-2.32,2.34c-.7.35-1.52.69-2.17.12-.63-.55-.33-1.38-.1-2.05a8.5058,8.5058,0,0,1,1.48-2.6A14.935,14.935,0,0,1,102.55,273.36Z" transform="translate(-17.822 -25.1865)"/><path class="cls-1" d="M80.72,259.87a6.5053,6.5053,0,0,1,2.14-.24c-1.02.35-1.86.6-2.66.94a18.7471,18.7471,0,0,0-6.45,4.93,31.2727,31.2727,0,0,0-3.79,5.5,16.3682,16.3682,0,0,1-4.32,5.36,4.5733,4.5733,0,0,1-2.88,1.01,2.6208,2.6208,0,0,1-2.64-2.28,5.391,5.391,0,0,1,.55-3.48,9.9867,9.9867,0,0,1,2.48-3.15A42.2518,42.2518,0,0,1,80.72,259.87Z" transform="translate(-17.822 -25.1865)"/><path class="cls-2" d="M268.49,168.57a30.6913,30.6913,0,0,1-1.1,12.92,24.9815,24.9815,0,0,1-3.17,6.9,26.1044,26.1044,0,0,1-6.87,6.63c-3.16,2.15-6.63,3.76-9.95,5.63-1.47.83-2.88,1.78-4.31,2.68a3.5087,3.5087,0,0,1-1.13.66,8.4236,8.4236,0,0,1,2.08-3.19,31.7229,31.7229,0,0,1,6.76-4.98,37.29,37.29,0,0,0,3.22-2.26,50.9583,50.9583,0,0,0,6.71-5.46,11.55,11.55,0,0,0,2.39-3.52,2.4957,2.4957,0,0,0-1.31-3.57,13.8115,13.8115,0,0,0-5.71-1.25,30.2134,30.2134,0,0,0-7.33.79c-.64.13-1.28.23-1.93.33a2.8954,2.8954,0,0,1-3.23-1.69c-.44-.81-.85-1.64-1.29-2.45a4.0049,4.0049,0,0,0-1.99-1.86,5.589,5.589,0,0,0-3.19-.12c-1.21.18-2.43.36-3.66.43a6.6954,6.6954,0,0,1-6.84-4.94,14.7514,14.7514,0,0,1-.15-6.64c.89-5.5,2.73-10.74,4.41-16.02a2.1652,2.1652,0,0,1,.21-.32c.29.15.13.4.13.59a27.4468,27.4468,0,0,0,3.53,13.83c.55.97,1.08,1.95,1.64,2.92a8.0812,8.0812,0,0,0,2.37,2.5,4.2641,4.2641,0,0,0,4.78.32,10.8068,10.8068,0,0,0,2.1-1.43q2.16-1.92,4.28-3.88a40.0157,40.0157,0,0,1,5.03-4.24,14.7027,14.7027,0,0,1,4.15-1.99,4.8093,4.8093,0,0,1,5.35,1.75,15.6257,15.6257,0,0,1,1.86,3.06A22.7251,22.7251,0,0,1,268.49,168.57Z" transform="translate(-17.822 -25.1865)"/><path class="cls-2" d="M260.25,70.4a46.246,46.246,0,0,1,.34,16.79,42.395,42.395,0,0,1-2.89,10.57,66.4318,66.4318,0,0,1-3.06,6.25,2.0339,2.0339,0,0,1-.12-1.23c.12-1.58.1-3.16.12-4.74a8.19,8.19,0,0,0-1.44-5.14c-2.14-2.93-2.49-6.21-2.11-9.69.2-1.88.3-3.77.43-5.65a11.8276,11.8276,0,0,0-3.07-8.82,10.3071,10.3071,0,0,0-4.69-3.25,4.9866,4.9866,0,0,0-5.51,1.27,15.01,15.01,0,0,0-1.93,2.29,34.1055,34.1055,0,0,0-3.13,5.52,15.3786,15.3786,0,0,0-.68,8.75,101.4956,101.4956,0,0,1,1.42,10.42,29.33,29.33,0,0,1-2.24,13.79,17.7663,17.7663,0,0,1-3.85,5.71,37.7,37.7,0,0,1-4.5,3.97,13.3207,13.3207,0,0,1-8.71,2.86,10.5639,10.5639,0,0,1-5.99-2.51,11.536,11.536,0,0,0,4.06,0,9.4216,9.4216,0,0,0,3.6-1.52,19.6171,19.6171,0,0,0,3.7-3.3,29.1655,29.1655,0,0,0,6.8-13.33,36.4783,36.4783,0,0,0,.22-11.28c-.51-4.33-1.41-8.6-2.1-12.9a24.3978,24.3978,0,0,1,1.96-15,16.9357,16.9357,0,0,1,11.98-9.66,11.3355,11.3355,0,0,1,6.58.68,19.8682,19.8682,0,0,1,5.86,3.64,29.5846,29.5846,0,0,1,5.2,6.01A27.4937,27.4937,0,0,1,260.25,70.4Z" transform="translate(-17.822 -25.1865)"/><path class="cls-3" d="M269.01,160.5a33.968,33.968,0,0,1,1.97,13.29,34.7472,34.7472,0,0,1-2.69,11.77,23.8787,23.8787,0,0,1-7.83,9.83c-3.96,3.11-8.49,5.29-12.84,7.76a36.867,36.867,0,0,0-7.36,5.16,49.93,49.93,0,0,0-4.33,4.63,14.8255,14.8255,0,0,0-3,7.17c-.15.91-.33,1.82-.45,2.73a23.8165,23.8165,0,0,1-2.4,7.45,25.4611,25.4611,0,0,1-8.34,9.27,34.6047,34.6047,0,0,1-7.72,4.15,29.8236,29.8236,0,0,1-11.04,2.21,19.3336,19.3336,0,0,1-8.35-2.01,28.2323,28.2323,0,0,1-3.82-2.17,29.1044,29.1044,0,0,0-4.4-2.28c-1.47-.67-2.88-.13-4.18.64a8.22,8.22,0,0,0-3.11,3.64,19.1757,19.1757,0,0,0-1.01,2.58,36.9875,36.9875,0,0,1-3.11,6.69,31.99,31.99,0,0,1-8.5,9.34,48.2958,48.2958,0,0,1-24.75,9.62,16.59,16.59,0,0,1-4.61-.31,9.1163,9.1163,0,0,1-7.37-7.39,9.4532,9.4532,0,0,1,1.56-7.8,1.1478,1.1478,0,0,0,.32-.79c-.41.1-.82.19-1.21.31-4.53,1.4-9.04,2.82-13.57,4.2a25.8688,25.8688,0,0,1-8.4,1.43,8.5927,8.5927,0,0,1-6.4-2.74,7.246,7.246,0,0,1-1.71-3.96c-.19-1.3-.32-2.6-.43-3.91a3.7442,3.7442,0,0,0-3.2-3.58,13.6856,13.6856,0,0,0-2.62-.38c-4.44-.25-8.87.02-13.3.13a153.9132,153.9132,0,0,1-18.6-.38,64.2624,64.2624,0,0,1-22.01-5.81,44.6844,44.6844,0,0,1-8.16-5.01,38.6493,38.6493,0,0,1-10.7-12.72,28.6307,28.6307,0,0,1-3.49-11.99,22.5551,22.5551,0,0,1,3.38-13,22.2187,22.2187,0,0,1,3.96-4.95,21.0085,21.0085,0,0,1,14.76-5.88,17.6081,17.6081,0,0,1,12.4,5.14,31.7845,31.7845,0,0,1,5.82,7.72,73.1853,73.1853,0,0,1,3.48,6.91,75.3143,75.3143,0,0,0,3.53,7.01,30.0521,30.0521,0,0,0,5.74,7.49,17.3068,17.3068,0,0,0,12.56,4.66,27.6028,27.6028,0,0,0,8.71-1.65,5.2544,5.2544,0,0,0,1.34-.67c.55-.42.6-.73.19-1.27a5.355,5.355,0,0,0-1.37-1.23c-1.17-.74-2.36-1.46-3.54-2.18a9.551,9.551,0,0,1-2.64-2.22,5.561,5.561,0,0,1-.49-5.97c2.03-4.21,5.61-6.39,9.82-7.84a66.019,66.019,0,0,1,10.01-2.31,12.4871,12.4871,0,0,0,6.08-2.33c.14-.12.33-.19.3-.5-1.07-.43-2.16-.88-3.25-1.32a27.3572,27.3572,0,0,1-5.39-2.88c-.38-.26-.77-.51-1.14-.79a9.8519,9.8519,0,0,0-5.57-1.92,15.9974,15.9974,0,0,1-4.81-1.18,21.9344,21.9344,0,0,1-3.89-1.47,10.7637,10.7637,0,0,0-4.92-1.47,13.2637,13.2637,0,0,1-7.15-2.68,8.3162,8.3162,0,0,1-3.31-8.67,12.163,12.163,0,0,1,3.38-5.71,16.3519,16.3519,0,0,1,5.89-3.76c.69-.24.83-.73.96-1.3a32.8907,32.8907,0,0,1,2.15-6.34,49.9736,49.9736,0,0,1,7.02-11.24,32.0783,32.0783,0,0,1,4.11-4.38c.41-.34.83-.68,1.38-1.13a31.3384,31.3384,0,0,0-9.97-4.21c-.34.4-.19.71-.18,1.01a12.8812,12.8812,0,0,1-.26,3.56,5.5951,5.5951,0,0,1-2.48,3.36,3.123,3.123,0,0,1-2.21.48,1.0844,1.0844,0,0,1-1.06-1.25,3.5529,3.5529,0,0,1,.03-.46,6.0122,6.0122,0,0,0-2.01-5.18c-.94-.97-1.92-1.9-2.85-2.88a1.7407,1.7407,0,0,0-1.1-.57,47.1562,47.1562,0,0,1-14.14-4.44,29.1368,29.1368,0,0,1-7.57-4.61,15.2329,15.2329,0,0,0-5.19-3.1,15.7564,15.7564,0,0,1-4.11-2.32,12.2225,12.2225,0,0,0-3.41-1.65,9.4826,9.4826,0,0,1-3.8-2.56,3.4986,3.4986,0,0,1,.43-5.36,10.57,10.57,0,0,1,5.5-1.84,1.5626,1.5626,0,0,0,1.4-.77,17.5439,17.5439,0,0,1,5.71-5.3,35.7452,35.7452,0,0,1,18.35-5.13,51.063,51.063,0,0,1,16.75,2.27c.71.22,1.25.3,1.78-.43a3.6709,3.6709,0,0,1,1.79-1.02,30.7566,30.7566,0,0,1,16.94-1.2,6.2036,6.2036,0,0,1,1.32.44c1.11.49,1.27,1.18.41,2.04-.7.7-1.51,1.31-2.25,1.99-1.37,1.26-2.65,2.59-2.88,4.58a3.2434,3.2434,0,0,0,1.09,3.02,59.9332,59.9332,0,0,1,5.14,4.81c.11.11.22.22.32.34a38.54,38.54,0,0,1,5.65,8.55,27.7377,27.7377,0,0,1,1.89,5.43c.18.75.21.76.94.52a63.8946,63.8946,0,0,1,9.61-2.46,64.5976,64.5976,0,0,1,14.16-.94c.31.02.62.04.92.05.91.03.91.02,1.17-.83a5.4551,5.4551,0,0,1,.98-1.82,34.1959,34.1959,0,0,1,9.78-8,38.7831,38.7831,0,0,1,7.23-3.32,34.3314,34.3314,0,0,1,10.28-1.99,4.8571,4.8571,0,0,1,3.3.75,5.1024,5.1024,0,0,0-1.44-4.74,23.6979,23.6979,0,0,0-9.75-5.98c-1.43-.48-2.83-1.01-4.28-1.4a5.6918,5.6918,0,0,0-1.46-.27c-.25.28-.11.6-.08.89a19.1216,19.1216,0,0,1-.03,3.12,7.45,7.45,0,0,1-2.52,4.92,4.2448,4.2448,0,0,1-3.4,1.14c-1.05-.09-1.6-.63-1.45-1.65.49-3.16-1.09-5.38-3.18-7.41a33.16,33.16,0,0,1-2.82-2.74,2.05,2.05,0,0,0-1.42-.67,57.8338,57.8338,0,0,1-17.04-5.21,55.1723,55.1723,0,0,1-7.73-4.14c-1.42-.95-2.6-2.16-3.94-3.2a7.1579,7.1579,0,0,0-2.31-1.27,29.8122,29.8122,0,0,1-7.58-3.87,11.1037,11.1037,0,0,0-2.67-1.33,12.5993,12.5993,0,0,1-6.22-4.01,4.135,4.135,0,0,1,.27-5.35,11.2222,11.2222,0,0,1,5.91-2.65,9.37,9.37,0,0,0,2.49-.33c.65-.33,1.04-1.19,1.55-1.81a27.5211,27.5211,0,0,1,9.23-6.99,44.52,44.52,0,0,1,14.92-4.23,59.8013,59.8013,0,0,1,11.89-.13,68.0214,68.0214,0,0,1,14.15,2.7c.44.13.76.2,1.12-.22a6.7776,6.7776,0,0,1,2.95-1.75,38.0883,38.0883,0,0,1,17.3-1.88,26.9346,26.9346,0,0,1,4.09.72,6.4211,6.4211,0,0,1,1.39.56c.94.55,1.05,1.3.23,2.04-1.06.95-2.18,1.84-3.24,2.79a10.2766,10.2766,0,0,0-3.29,4.79,3.8266,3.8266,0,0,0,1.25,4.07c1.77,1.6,3.62,3.1,5.33,4.77a40.3253,40.3253,0,0,1,3.53,3.98,40.9518,40.9518,0,0,1,5.71,9.6,29.4516,29.4516,0,0,1,2.3,11.59,22.9523,22.9523,0,0,1-.85,6.05,5.4886,5.4886,0,0,0-.35,1.45c.19.21.43.12.65.1A25.4158,25.4158,0,0,1,206,104.96a10.93,10.93,0,0,1,5.72,4.3,3.9,3.9,0,0,1-.71,5.55c-.23.2-.47.39-.84.68a4.848,4.848,0,0,0,3.18-.4,9.6862,9.6862,0,0,0,2.5-1.65,26.56,26.56,0,0,0,3.49-3.85,24.517,24.517,0,0,0,4.92-10.46,35.2943,35.2943,0,0,0,.21-9.79c-.44-4.18-1.3-8.3-1.85-12.47a36.4326,36.4326,0,0,1,.09-11.97,21.6872,21.6872,0,0,1,4.84-9.98,19.3742,19.3742,0,0,1,9.03-6.18,14.4825,14.4825,0,0,1,9.2.12,20.2049,20.2049,0,0,1,5.6,2.97,29.0492,29.0492,0,0,1,11.98,21.76,56.94,56.94,0,0,1-.82,17.03,51.1291,51.1291,0,0,1-4.99,13.27,94.472,94.472,0,0,1-6.08,9.95c-2.42,3.52-4.93,6.98-7.4,10.47a2.1414,2.1414,0,0,0-.13.19c-1.89,2.95-3.86,5.85-5.59,8.91a45.2919,45.2919,0,0,0-3.88,9,20.1515,20.1515,0,0,0,.32,13.82c.68,1.68,1.41,3.33,2.23,4.95a20.6868,20.6868,0,0,0,1.84,2.79,5.0543,5.0543,0,0,0,.98.98,2.2137,2.2137,0,0,0,2.97.19,15.8792,15.8792,0,0,0,2.74-2.11q1.86-1.815,3.73-3.62a28.05,28.05,0,0,1,5.96-4.54,11.5821,11.5821,0,0,1,5.38-1.54,7.1035,7.1035,0,0,1,5.2,2.14A13.5732,13.5732,0,0,1,269.01,160.5Zm-1.62,20.99a30.6913,30.6913,0,0,0,1.1-12.92,22.7251,22.7251,0,0,0-2.16-7.87,15.6257,15.6257,0,0,0-1.86-3.06,4.8093,4.8093,0,0,0-5.35-1.75,14.7027,14.7027,0,0,0-4.15,1.99,40.0157,40.0157,0,0,0-5.03,4.24q-2.115,1.965-4.28,3.88a10.8068,10.8068,0,0,1-2.1,1.43,4.2641,4.2641,0,0,1-4.78-.32,8.0812,8.0812,0,0,1-2.37-2.5c-.56-.97-1.09-1.95-1.64-2.92a27.4468,27.4468,0,0,1-3.53-13.83c0-.19.16-.44-.13-.59a2.1652,2.1652,0,0,0-.21.32c-1.68,5.28-3.52,10.52-4.41,16.02a14.7514,14.7514,0,0,0,.15,6.64,6.6954,6.6954,0,0,0,6.84,4.94c1.23-.07,2.45-.25,3.66-.43a5.589,5.589,0,0,1,3.19.12,4.0049,4.0049,0,0,1,1.99,1.86c.44.81.85,1.64,1.29,2.45a2.8954,2.8954,0,0,0,3.23,1.69c.65-.1,1.29-.2,1.93-.33a30.2134,30.2134,0,0,1,7.33-.79,13.8115,13.8115,0,0,1,5.71,1.25,2.4957,2.4957,0,0,1,1.31,3.57,11.55,11.55,0,0,1-2.39,3.52,50.9583,50.9583,0,0,1-6.71,5.46,37.29,37.29,0,0,1-3.22,2.26,31.7229,31.7229,0,0,0-6.76,4.98,8.4236,8.4236,0,0,0-2.08,3.19,3.5087,3.5087,0,0,0,1.13-.66c1.43-.9,2.84-1.85,4.31-2.68,3.32-1.87,6.79-3.48,9.95-5.63a26.1044,26.1044,0,0,0,6.87-6.63A24.9815,24.9815,0,0,0,267.39,181.49Zm-5.79,3.26c.89-1.56.57-2.28-1.13-2.87-.07-.03-.15-.03-.22-.06a17.8553,17.8553,0,0,0-7.89-.56c-1.79.21-3.57.54-5.35.84a3.9465,3.9465,0,0,1-4.52-2.2c-.36-.68-.65-1.41-1.06-2.05-1.2-1.89-1.83-2.29-3.86-1.89a20.872,20.872,0,0,1-4.92.57,7.42,7.42,0,0,1-6.34-3.62,10.658,10.658,0,0,1-1.53-7.1c.15-1.18.39-2.36.62-3.53a104.473,104.473,0,0,1,4.7-15.69,19.442,19.442,0,0,1,1.17-2.64,10.5918,10.5918,0,0,0,1.03-2.31,50.256,50.256,0,0,1,4.48-10.25c.26-.47.51-.95.8-1.41,2.35-3.66,4.75-7.28,7.26-10.84,1.91-2.7,3.83-5.41,5.54-8.25.1-.16.22-.31.33-.47a10.57,10.57,0,0,0,2.13-5.05,56.1352,56.1352,0,0,0,.23-8.2,6.8117,6.8117,0,0,0-1.01-3.4c-.36-.59-.68-1.21-1.09-1.77a8.514,8.514,0,0,1-1.42-4.1,29.369,29.369,0,0,1,.14-6,46.8433,46.8433,0,0,0,.34-5.3,11.0284,11.0284,0,0,0-5.12-9.09,7.26,7.26,0,0,0-2.11-.93,3.28,3.28,0,0,0-3.49.9,18.0556,18.0556,0,0,0-2.52,3c-.71,1.11-1.29,2.28-1.94,3.42a12.3347,12.3347,0,0,0-1.35,8.16c.49,3.43,1.14,6.84,1.58,10.28a30.8121,30.8121,0,0,1-2.33,15.82c-1.62,3.96-4.57,6.9-7.89,9.49a17.0685,17.0685,0,0,1-5.33,2.94,11.5763,11.5763,0,0,1-7.49.03,16.4245,16.4245,0,0,1-4.8-2.93,4.5031,4.5031,0,0,0-1.45-.93,14.8832,14.8832,0,0,1-2.75-1.2c-1.87-.99-3.73-2-5.59-3.01a21.2554,21.2554,0,0,0-4.6-1.84,3.1113,3.1113,0,0,0-3.35.96,9.0271,9.0271,0,0,0-1.91,3.9,6.4685,6.4685,0,0,0,1.43,6.05c1.13,1.41,2.41,2.7,3.6,4.06a13.977,13.977,0,0,1,2.63,4.19,3.2408,3.2408,0,0,1-1.78,4.42,4.973,4.973,0,0,1-1.21.36c-2.01.38-4.05.54-6.07.83a5.9473,5.9473,0,0,0-5.23,4.55,1.9345,1.9345,0,0,0,.71,2.31,56.8056,56.8056,0,0,1,7.94,7.72,59.6388,59.6388,0,0,1,6.47,9,61.2254,61.2254,0,0,1,6.53,15.99,52.54,52.54,0,0,1,1.54,14.68,1.7809,1.7809,0,0,0,.11,1.11,2.8718,2.8718,0,0,0,.37-.11,28.259,28.259,0,0,1,9.52-3.02c3.75-.47,7.4-.3,10.81,1.52a9.9016,9.9016,0,0,1,5.45,6.4,8.4612,8.4612,0,0,1-2.52,8.63,23.9205,23.9205,0,0,1-9.07,5.15,18.0636,18.0636,0,0,1-7.51,1.02c-.19-.01-.38-.06-.53.1a.5463.5463,0,0,0,.04.45,14.6266,14.6266,0,0,1,.94,4.62c.21,4.6-1.01,8.68-4.38,11.98a10.6628,10.6628,0,0,1-5.23,2.8,25.2955,25.2955,0,0,1-5.63.54c-5.56-.01-9.78-3.73-11.28-8.92a23.4584,23.4584,0,0,1-.64-6.08c-.04-1.59-.08-3.16-.25-4.74a10.0174,10.0174,0,0,0-3.63-6.75,23.3693,23.3693,0,0,0-4.15-2.72,20.88,20.88,0,0,0-3.59-1.57,44.5309,44.5309,0,0,0-9.78-1.63,15.63,15.63,0,0,0-3.35-.08c-.81.12-.83.16-.58.96a37.1854,37.1854,0,0,1,1.38,6.19,15.4977,15.4977,0,0,1-1.55,8.98,5.7734,5.7734,0,0,1-3.28,3.08,1.8585,1.8585,0,0,1-2.68-1.61c-.06-.69-.18-1.38-.27-2.06a10.5958,10.5958,0,0,0-2.08-5.2,26.2337,26.2337,0,0,0-6.57-5.77,10.0431,10.0431,0,0,1-2.09-1.63,1.4242,1.4242,0,0,0-1.43-.44,49.7262,49.7262,0,0,1-10.83.6,2.02,2.02,0,0,0-2.04.97,4.8225,4.8225,0,0,0-.41.69,4.4221,4.4221,0,0,1-2.7,2.38,29.7457,29.7457,0,0,1-3.08.97,2.6731,2.6731,0,0,0-1.84,1.25,5.4721,5.4721,0,0,1-2.88,2.21,9.25,9.25,0,0,1-4.89.41,14.6348,14.6348,0,0,0-3.55-.33,19.7451,19.7451,0,0,0-6.78,1.79,5.0186,5.0186,0,0,0-1.93,1.61,2.04,2.04,0,0,0-.27,2.08,12.0434,12.0434,0,0,0,.68,1.34,17.1406,17.1406,0,0,1,1.13,2.27,2.9077,2.9077,0,0,1-.66,3.2,5.522,5.522,0,0,1-2.48,1.64,2.58,2.58,0,0,0-1.83,1.41,2.0815,2.0815,0,0,1-.82.79,13.0615,13.0615,0,0,1-3.24,1.5,32.7666,32.7666,0,0,1-6.58,1.23,21.266,21.266,0,0,1-12.62-2.51c-1.17-.66-2.29-1.4-3.51-2a31.2241,31.2241,0,0,1-7.84-5.45,57.831,57.831,0,0,1-4.32-4.66,36.3174,36.3174,0,0,0-3.24-3.44,15.4044,15.4044,0,0,0-5.34-3.38,5.4945,5.4945,0,0,0-6.24,1.79c-2.47,3.03-2.21,6.92.89,10.12a19.4532,19.4532,0,0,0,6.79,4.29,74.829,74.829,0,0,0,9.15,2.79,13.5385,13.5385,0,0,1,6.51,3.54c.59.61,1.24,1.16,1.86,1.73a14.1274,14.1274,0,0,0,8.4,3.72,40.0363,40.0363,0,0,0,10.25-.55c5.4-.84,10.72-2.11,16.1-3.02a42.1037,42.1037,0,0,1,10.8-.82,15.4,15.4,0,0,1,8.21,3.08,4.4277,4.4277,0,0,1,1.57,5.06,15.1137,15.1137,0,0,1-1.74,3.51,12.5637,12.5637,0,0,0-1.97,4.4,1.92,1.92,0,0,0,1.79,2.45,7.4159,7.4159,0,0,0,2.3-.08,29.3053,29.3053,0,0,0,4.95-1.55A129.4366,129.4366,0,0,1,145.14,243a16.5711,16.5711,0,0,1,6.87-.35c3.41.65,6.25,2.11,7.92,5.35a18.3634,18.3634,0,0,0,1.37,2.13,4.5078,4.5078,0,0,0,4.04,2.05c3.14-.1,7.34-2.1,8.57-6.12a15.8886,15.8886,0,0,0,.81-4.07,5.31,5.31,0,0,1,2.33-4.18c2.6-1.98,5.36-2.63,8.39-.99a3.8805,3.8805,0,0,0,.86.32,15.15,15.15,0,0,1,4.52,2c1.21.76,2.43,1.5,3.69,2.17a17.9936,17.9936,0,0,0,9.79,2.22,30.197,30.197,0,0,0,9.82-2.47,35.4231,35.4231,0,0,0,7.27-4.22,21.4543,21.4543,0,0,0,8.45-12.18c.12-.49.22-.98.32-1.47a58.4675,58.4675,0,0,1,1.59-6.62,21.7683,21.7683,0,0,1,6.03-8.89,8.217,8.217,0,0,0,2.3-3.12c1.34-3.68,4.22-6.01,7.32-8.07,1.76-1.16,3.61-2.19,5.3-3.48,1.53-1.17,3.12-2.27,4.63-3.46A16.7386,16.7386,0,0,0,261.6,184.75Zm-1.01-97.56a46.246,46.246,0,0,0-.34-16.79,27.4937,27.4937,0,0,0-3.75-9.5,29.5846,29.5846,0,0,0-5.2-6.01,19.8682,19.8682,0,0,0-5.86-3.64,11.3355,11.3355,0,0,0-6.58-.68,16.9357,16.9357,0,0,0-11.98,9.66,24.3978,24.3978,0,0,0-1.96,15c.69,4.3,1.59,8.57,2.1,12.9a36.4783,36.4783,0,0,1-.22,11.28,29.1655,29.1655,0,0,1-6.8,13.33,19.6171,19.6171,0,0,1-3.7,3.3,9.4216,9.4216,0,0,1-3.6,1.52,11.536,11.536,0,0,1-4.06,0,10.5639,10.5639,0,0,0,5.99,2.51,13.3207,13.3207,0,0,0,8.71-2.86,37.7,37.7,0,0,0,4.5-3.97,17.7663,17.7663,0,0,0,3.85-5.71,29.33,29.33,0,0,0,2.24-13.79,101.4956,101.4956,0,0,0-1.42-10.42,15.3786,15.3786,0,0,1,.68-8.75,34.1055,34.1055,0,0,1,3.13-5.52,15.01,15.01,0,0,1,1.93-2.29,4.9866,4.9866,0,0,1,5.51-1.27,10.3071,10.3071,0,0,1,4.69,3.25,11.8276,11.8276,0,0,1,3.07,8.82c-.13,1.88-.23,3.77-.43,5.65-.38,3.48-.03,6.76,2.11,9.69a8.19,8.19,0,0,1,1.44,5.14c-.02,1.58,0,3.16-.12,4.74a2.0339,2.0339,0,0,0,.12,1.23,66.4318,66.4318,0,0,0,3.06-6.25A42.395,42.395,0,0,0,260.59,87.19ZM226.5,202.31c1.43-1.64,2.32-3.51,1.75-5.72a7.728,7.728,0,0,0-3.07-4.62,12.39,12.39,0,0,0-4.62-2.04,21.6053,21.6053,0,0,0-10.17.57,39.8882,39.8882,0,0,0-6.93,2.52,1.1537,1.1537,0,0,1-1.78-1.05,9.097,9.097,0,0,1,.03-1.04,53.241,53.241,0,0,0-3.09-20.89,58.8469,58.8469,0,0,0-3.3-7.5,64.8067,64.8067,0,0,0-6.57-9.89,62.36,62.36,0,0,0-9.6-9.48,65.8853,65.8853,0,0,0-39.02-14.3,61.9607,61.9607,0,0,0-18.52,2.19,56.6138,56.6138,0,0,0-23.46,12.89,52.107,52.107,0,0,0-9.6,11.79,53.8556,53.8556,0,0,0-5.03,10.63,1.3329,1.3329,0,0,1-.73.84,17.684,17.684,0,0,0-6.56,5.33,8.4962,8.4962,0,0,0-1.73,4.21A6.0113,6.0113,0,0,0,76.32,182a9.8772,9.8772,0,0,0,4.71,2.58,19.3212,19.3212,0,0,0,13.57-1.69c.72-.36,1.4-.82,2.12-1.17a1.0031,1.0031,0,0,1,1.33.35,1.058,1.058,0,0,1-.1,1.38,2.8287,2.8287,0,0,1-.93.68,25.9462,25.9462,0,0,1-6.53,2.59c-.38.09-.75.22-1.29.38a11.0128,11.0128,0,0,0,2.46.86,30.0489,30.0489,0,0,0,10.55,1.67,1.77,1.77,0,0,1,.23.01.7958.7958,0,0,1,.7,1.23c-.07.17-.29.26-.26.52a1.1979,1.1979,0,0,0,.23.21,40.8732,40.8732,0,0,0,8.75,4.11,97.7173,97.7173,0,0,0,10.1,2.45,52.7259,52.7259,0,0,0,15.4.96c.88-.07,1.74-.19,2.69-.29a26.0548,26.0548,0,0,1-.8-2.59c-.36-1.78-.63-3.57-.93-5.35a3.7451,3.7451,0,0,1-.01-.58c.01-.21.08-.4.31-.41.17-.01.25.15.32.29a14.6776,14.6776,0,0,1,1.22,3.48,12.1537,12.1537,0,0,0,1.42,3.88,9.3613,9.3613,0,0,0,2.79,3.15,39.6837,39.6837,0,0,1,6.15,4.49,15.1745,15.1745,0,0,1,4.08,6.2,22.2949,22.2949,0,0,1,.69,4.21,5.2438,5.2438,0,0,0,2.23-2.49,14.92,14.92,0,0,0,.84-8.51,16.9337,16.9337,0,0,0-2.03-6.22c-.41-.65-.78-1.32-1.15-2a1.0344,1.0344,0,0,1,.19-1.37,1.0492,1.0492,0,0,1,1.38,0,2.1716,2.1716,0,0,1,.79.83.7463.7463,0,0,0,1.03.41,9.9139,9.9139,0,0,1,3.56-.25q3.81.285,7.57.88a26.2794,26.2794,0,0,1,12.57,5.74,12.0128,12.0128,0,0,1,4.44,8.09c.09.72.15,1.46.18,2.19.09,2.11.1,4.24.23,6.35a10.1866,10.1866,0,0,0,3.27,7.06,8.589,8.589,0,0,0,4.94,2.29,20.6859,20.6859,0,0,0,4.38-.09c4.07-.34,6.81-2.5,8.53-6.16a13.62,13.62,0,0,0,1.14-7.54,9.5683,9.5683,0,0,0-1.09-3.62,13.6923,13.6923,0,0,0-1.02-1.54,1.227,1.227,0,0,1,1.13-2.02,12.4231,12.4231,0,0,1,1.49.21,14.815,14.815,0,0,0,6.97-.3,25.8966,25.8966,0,0,0,5.25-2.09A14.0761,14.0761,0,0,0,226.5,202.31Zm-16.78-88.67a2.671,2.671,0,0,0,.85-2.73,4.9448,4.9448,0,0,0-1.83-2.86,13.8684,13.8684,0,0,0-5.24-2.6,28.0122,28.0122,0,0,0-8-.9c-1.08.03-2.16-.02-3.24.09-.92.09-1.27-.39-1.01-1.27.05-.14.11-.29.16-.43a28.4216,28.4216,0,0,0,1.3-7.02,23.9287,23.9287,0,0,0-.44-5.06,33.403,33.403,0,0,0-3.31-9.43,45.0791,45.0791,0,0,0-9.79-12.18,58.737,58.737,0,0,0-12.98-8.76A66.811,66.811,0,0,0,142.5,53.6a55.4427,55.4427,0,0,0-16.56.75,40.0047,40.0047,0,0,0-13.86,5.49,31.45,31.45,0,0,0-6.13,5.07,4.2213,4.2213,0,0,1-2.84,1.5,11.9012,11.9012,0,0,0-4.57,1.5c-2.62,1.44-2.98,4.01-.87,6.1a3.9287,3.9287,0,0,0,.61.54,16.5185,16.5185,0,0,0,3.46,1.81,21.387,21.387,0,0,0,8.76,1.13c.61-.05,1.22-.19,1.83-.25.84-.08,1.43.21,1.37.68-.09.65-.67.64-1.16.72a27.3913,27.3913,0,0,1-4.96.22,1.7693,1.7693,0,0,0-1.13.15,38.3963,38.3963,0,0,0,5.02,2.42,22.8234,22.8234,0,0,0,4.05,1.32c.41.07,1,.25.67.76-.27.42-.2.55.1.78.64.5,1.27,1,1.93,1.48a50.0529,50.0529,0,0,0,8.83,4.75,60.8889,60.8889,0,0,0,12.31,4.22,18.8118,18.8118,0,0,0,3.6.61c-.24-2.98-.15-4.54.33-5.27a4.3514,4.3514,0,0,1,.62,2.43,7.0426,7.0426,0,0,0,2.81,5.46,23.46,23.46,0,0,1,3.67,3.65,7.1056,7.1056,0,0,1,1.78,5.21c-.03.34-.19.68.02,1.03a1.7316,1.7316,0,0,0,1.08-.29,5.223,5.223,0,0,0,2.56-3.68,9.5191,9.5191,0,0,0-.54-6.11,4.3972,4.3972,0,0,1-.31-.75.61.61,0,0,1,.71-.78.8827.8827,0,0,1,.77.45,1.6286,1.6286,0,0,0,1.76.99,3.1294,3.1294,0,0,1,.9.18,44.2893,44.2893,0,0,1,11.01,4.39,19.2857,19.2857,0,0,1,4.72,3.87,6.796,6.796,0,0,1,1.8,6.29c-.22.89-.53,1.77-.74,2.67a6.55,6.55,0,0,0-.26,2.85,6.7925,6.7925,0,0,0,3.99,4.92,16.4327,16.4327,0,0,0,5.35,1.33,5.9726,5.9726,0,0,0,3.12-.26c-.43-.6-.8-1.09-1.14-1.59a7.9775,7.9775,0,0,1-1.7-5.16,12.1865,12.1865,0,0,1,3.06-7.09,4.3983,4.3983,0,0,1,3.52-1.46,8.6577,8.6577,0,0,1,2.71.5,42.5408,42.5408,0,0,1,6.41,2.91c1.6.85,3.21,1.66,4.85,2.42C207.4,115.19,208.6,114.59,209.72,113.64Zm-17.16,18.8a1.2466,1.2466,0,0,0,.79-1.85,4.9414,4.9414,0,0,0-.39-.84,29.1734,29.1734,0,0,0-3.15-4.12.9706.9706,0,0,0-1.05-.26,12.0855,12.0855,0,0,1-5.15-.02,13.8261,13.8261,0,0,1-7.06-2.87,7.5639,7.5639,0,0,1-2.64-4.73c-.03-.23.12-.54-.23-.71a7.8457,7.8457,0,0,0-1.06,1.65,47.7923,47.7923,0,0,0-2.54,6.31,10.4165,10.4165,0,0,0,1.23,9.88,2.9039,2.9039,0,0,0,1,.94c1.35.73,2.61,1.62,3.92,2.43.95.57,1.77,1.34,2.9,1.95a10.52,10.52,0,0,1,1.34-3.81,4.1316,4.1316,0,0,1,3.57-2.55c1.81-.14,3.6-.39,5.4-.6A11.286,11.286,0,0,0,192.56,132.44ZM182.4,237.58a7.5221,7.5221,0,0,0-5.29,1.65,2.5232,2.5232,0,0,0-.97,1.87,22.592,22.592,0,0,1-.6,3.65,11.1094,11.1094,0,0,1-2.22,4.9,11.5177,11.5177,0,0,1-5.99,3.52c-2.66.68-5.01.24-6.88-2.01a15.97,15.97,0,0,1-1.77-2.83,8.4343,8.4343,0,0,0-5.09-4.06,14.5182,14.5182,0,0,0-7.76-.31,118.7515,118.7515,0,0,0-16.72,4.84,32.6945,32.6945,0,0,1-5.94,1.85,5.948,5.948,0,0,1-2.75-.09,2.998,2.998,0,0,1-2.2-3.46,9.415,9.415,0,0,1,.82-2.52,46.0794,46.0794,0,0,1,2.31-4.26,5.633,5.633,0,0,0,.81-2.27,2.6567,2.6567,0,0,0-.71-2.23,10.2346,10.2346,0,0,0-3.51-2.39,17.8766,17.8766,0,0,0-7.68-1.25,75.923,75.923,0,0,0-12.56,1.83c-5.62,1.14-11.21,2.42-16.96,2.76a19.4106,19.4106,0,0,1-10.96-2.08,21.4867,21.4867,0,0,1-4.47-3.62,12.5786,12.5786,0,0,0-5.63-3.26c-2.11-.58-4.24-1.12-6.34-1.75a27.0359,27.0359,0,0,1-9.58-4.7,11.5308,11.5308,0,0,1-3.56-4.75,7.65,7.65,0,0,1,1.12-7.64,6.87,6.87,0,0,1,8.18-2.49,18.8636,18.8636,0,0,1,6.32,4.35c1.7,1.69,3.12,3.61,4.75,5.35a39.8516,39.8516,0,0,0,5.05,4.58c.5.38,1.06.69,1.76,1.15a2.394,2.394,0,0,0-.69-1.14,33.1631,33.1631,0,0,1-4.1-6.27c-1.22-2.14-2.24-4.39-3.3-6.62-1.05-2.22-2.07-4.47-3.3-6.61a36.4841,36.4841,0,0,0-3.9-5.58,18.2714,18.2714,0,0,0-4.3-3.64,15.1081,15.1081,0,0,0-7.89-2.33,18.5659,18.5659,0,0,0-13.26,5.35,21.8836,21.8836,0,0,0-5.9,10.31,17.4739,17.4739,0,0,0-.29,8.47A32.5894,32.5894,0,0,0,24.6,224.2a35.8788,35.8788,0,0,0,6.94,8.29,40.1955,40.1955,0,0,0,8.53,5.7,62.7579,62.7579,0,0,0,21.1,6.06,120.42,120.42,0,0,0,17.09.62c4.86-.11,9.71-.21,14.57-.14a18.6023,18.6023,0,0,1,5.02.7c2.66.77,3.95,2.67,4.38,5.26.22,1.33.26,2.68.45,4.02a4.881,4.881,0,0,0,3.32,4.2,9.9947,9.9947,0,0,0,3.98.53,28.9907,28.9907,0,0,0,6.67-1.32c4.17-1.26,8.3-2.63,12.49-3.78,2.08-.58,4.12-1.29,6.13-2.05.73-.27,1.26-.12,1.55.35a1.2237,1.2237,0,0,1-.37,1.55c-.51.47-1.04.92-1.59,1.34a8.3811,8.3811,0,0,0-2.9,4.61,7.5167,7.5167,0,0,0,5.89,9.49,14.8336,14.8336,0,0,0,3.46.18,40.9591,40.9591,0,0,0,14.37-3.62,44.079,44.079,0,0,0,8.05-4.5,34.1968,34.1968,0,0,0,7.82-7.32,29.041,29.041,0,0,0,3.98-7.27c.51-1.37,1.08-2.71,1.67-4.06a9.2466,9.2466,0,0,1,3.32-4.2C181.08,238.47,181.63,238.09,182.4,237.58Zm-2.5-182.7a6.606,6.606,0,0,0,1.59-1.55,12.5387,12.5387,0,0,0-3.69-.82,39.2334,39.2334,0,0,0-11.85.22,32.6152,32.6152,0,0,0-6.67,1.83,2.9276,2.9276,0,0,0-1.41.89,1.8681,1.8681,0,0,0,2.21.15,8.5469,8.5469,0,0,1,2.46-.95,58.1206,58.1206,0,0,1,10.61-1.18,13.6537,13.6537,0,0,1-3.32.62,52.3069,52.3069,0,0,0-6.89,1.42,4.6441,4.6441,0,0,0-2.17,1.06c2.44,1.03,4.8,2.05,7.09,3.24,2.26,1.18,4.4,2.56,6.7,3.93a6.9045,6.9045,0,0,1,1.53-5.17A22.9571,22.9571,0,0,1,179.9,54.88Zm-7.76,59.92a4.1042,4.1042,0,0,0,.56-1.6,3.6462,3.6462,0,0,0-1.66-.12,35.8592,35.8592,0,0,0-12.89,3.32,42.5444,42.5444,0,0,0-7.95,4.68,27.9214,27.9214,0,0,0-4.75,4.21,2.7985,2.7985,0,0,0-.88,1.53c.33.2.65.12.95.19a1.3421,1.3421,0,0,0,1.54-.61,15.8559,15.8559,0,0,1,3.79-3.51,63.8987,63.8987,0,0,1,11.11-5.6c.21-.09.43-.32.77-.07-.78.44-1.5.87-2.24,1.27a57.8906,57.8906,0,0,0-10.16,6.58,6.01,6.01,0,0,0-1.91,2.28c1.72.35,3.38.68,5.03,1.04,1.66.35,3.29.82,4.9,1.33,1.62.5,3.21,1.09,4.8,1.67,1.56.57,3.01,1.44,4.7,1.92a16.2414,16.2414,0,0,1-.56-5.98,26.2232,26.2232,0,0,1,2.44-7.8C170.48,117.93,171.35,116.38,172.14,114.8Zm-45.47,86.53c-.92-.14-1.79-.26-2.66-.41-3.26-.57-6.48-1.33-9.7-2.09-.41-.1-.73-.17-.99.27-1.1,1.85-2.92,2.68-4.84,3.33-2.19.74-4.5,1.05-6.74,1.58a31.7456,31.7456,0,0,0-9.38,3.47,11.4861,11.4861,0,0,0-4.11,4.58,4.4064,4.4064,0,0,0-.44,1.43,2.577,2.577,0,0,0,1.16,2.7c.93.62,1.86,1.26,2.84,1.78a24.8324,24.8324,0,0,1,3.71,2.54,4.096,4.096,0,0,1,1.49,2.41c.05.25,0,.55.26.78a5.4731,5.4731,0,0,0,2.22-1.11c1.49-1.18,1.7-2.12.8-3.81-.48-.92-1.08-1.77-1.61-2.67a2.5543,2.5543,0,0,1,.11-3.02,6.8989,6.8989,0,0,1,2.78-2.36,19.2382,19.2382,0,0,1,8.03-1.86c1.17,0,2.3.28,3.45.34,2.26.12,4.28-.38,5.74-2.29a4.7444,4.7444,0,0,1,2.38-1.56c.94-.32,1.85-.75,2.81-1.05A4.158,4.158,0,0,0,126.67,201.33Zm-12.33-70.15c.93-.38.92-.38.67-1.34a31.2407,31.2407,0,0,0-5.46-11.38,43.43,43.43,0,0,0-9.2-8.86,48.5235,48.5235,0,0,0-7.86-4.63,53.0238,53.0238,0,0,0-17.35-4.89,44.1475,44.1475,0,0,0-14.59.78,29.6359,29.6359,0,0,0-15.38,8.62,2.8135,2.8135,0,0,1-2.11,1.16,9.6805,9.6805,0,0,0-2.12.53,5.972,5.972,0,0,0-2.34,1.22,2.7682,2.7682,0,0,0-.39,4.18,6.6992,6.6992,0,0,0,2.37,1.81,15.967,15.967,0,0,0,9.58,1.28,3.6794,3.6794,0,0,1,.58-.05c.37.01.73.13.77.54.06.45-.32.55-.68.61a14.5576,14.5576,0,0,1-2.64.23H45.84a.24.24,0,0,0,.16.33,31.5823,31.5823,0,0,0,6.34,2.75,8.5692,8.5692,0,0,1,.99.28c.23.08.44.3.21.52-.38.38-.05.49.18.69a30.51,30.51,0,0,0,6.94,4.31,54.4737,54.4737,0,0,0,11.11,4.16,15.68,15.68,0,0,0,3.34.58c0-.78-.04-1.47.02-2.15a7.1067,7.1067,0,0,1,.24-2.31,4.9943,4.9943,0,0,1,.7,2.41,5.8876,5.8876,0,0,0,1.01,3.02,10.8882,10.8882,0,0,0,2.06,2.01,11.2107,11.2107,0,0,1,2.89,3.57,4.9959,4.9959,0,0,1,.72,2.98c-.03.28-.25.66.1.84s.67-.11.94-.31a3.6083,3.6083,0,0,0,.74-.72,6.45,6.45,0,0,0,1.1-5.9c-.18-.62-.46-1.22-.67-1.84-.19-.56.15-.9.72-.76a.7672.7672,0,0,1,.63.45c.21.61.72.6,1.21.71a33.12,33.12,0,0,1,9.64,3.74c1.05.63,1.05.69,1.96-.09A58.4241,58.4241,0,0,1,114.34,131.18Zm-8.01-31.4a3.1238,3.1238,0,0,0-.36-.15,3.2211,3.2211,0,0,0-.44-.14,30.61,30.61,0,0,0-16.82,1.23,2.5485,2.5485,0,0,0-1.39.88c.54.25.94.56,1.53.22a12.4331,12.4331,0,0,1,4.39-1.33,44.412,44.412,0,0,1,5.75-.46c-3.08.74-6.31.83-9.2,2.43a69.3885,69.3885,0,0,1,10.93,5.95c.04-.57.07-.98.12-1.39a4.3015,4.3015,0,0,1,.86-2.36,19.8693,19.8693,0,0,1,3.62-3.71C105.73,100.66,106.22,100.37,106.33,99.78Z" transform="translate(-17.822 -25.1865)"/><path class="cls-3" d="M269.48,119.48a9.4966,9.4966,0,0,1-2.4,6.58,43.8852,43.8852,0,0,1-3.8,4.04,36.8315,36.8315,0,0,0-3.99,4.64,15.4226,15.4226,0,0,0-2.79,6.28,1.9594,1.9594,0,0,0-.02,1.02c.09.28-.11.38-.33.51-.33.19-.38-.06-.52-.23a13.8865,13.8865,0,0,1-2.52-5.52,22.2991,22.2991,0,0,1-.77-5.79,20.3234,20.3234,0,0,1,2.45-9.22,11.8583,11.8583,0,0,1,10.08-6.16,4.9177,4.9177,0,0,1,1.82.28A3.793,3.793,0,0,1,269.48,119.48Zm-2.53.9a1.84,1.84,0,0,0-1.93-2.19,6.0445,6.0445,0,0,0-2.49.41,10.4049,10.4049,0,0,0-6.34,6.31,19.6085,19.6085,0,0,0-1.15,10.66,8.9863,8.9863,0,0,0,.57,2.54,12.6949,12.6949,0,0,1,1.49-3.65,45.5611,45.5611,0,0,1,6.81-8.11,10.8776,10.8776,0,0,0,2.43-3.63A7.3579,7.3579,0,0,0,266.95,120.38Z" transform="translate(-17.822 -25.1865)"/><path class="cls-4" d="M260.47,181.88c1.7.59,2.02,1.31,1.13,2.87a16.7386,16.7386,0,0,1-4.27,4.8c-1.51,1.19-3.1,2.29-4.63,3.46-1.69,1.29-3.54,2.32-5.3,3.48-3.1,2.06-5.98,4.39-7.32,8.07a8.217,8.217,0,0,1-2.3,3.12,21.7683,21.7683,0,0,0-6.03,8.89,58.4675,58.4675,0,0,0-1.59,6.62c-.1.49-.2.98-.32,1.47a21.4543,21.4543,0,0,1-8.45,12.18,35.4231,35.4231,0,0,1-7.27,4.22,30.197,30.197,0,0,1-9.82,2.47,17.9936,17.9936,0,0,1-9.79-2.22c-1.26-.67-2.48-1.41-3.69-2.17a15.15,15.15,0,0,0-4.52-2,3.8805,3.8805,0,0,1-.86-.32c-3.03-1.64-5.79-.99-8.39.99a5.31,5.31,0,0,0-2.33,4.18,15.8886,15.8886,0,0,1-.81,4.07c-1.23,4.02-5.43,6.02-8.57,6.12a4.5078,4.5078,0,0,1-4.04-2.05,18.3634,18.3634,0,0,1-1.37-2.13c-1.67-3.24-4.51-4.7-7.92-5.35a16.5711,16.5711,0,0,0-6.87.35,129.4366,129.4366,0,0,0-16.69,4.96,29.3053,29.3053,0,0,1-4.95,1.55,7.4159,7.4159,0,0,1-2.3.08,1.92,1.92,0,0,1-1.79-2.45,12.5637,12.5637,0,0,1,1.97-4.4,15.1137,15.1137,0,0,0,1.74-3.51,4.4277,4.4277,0,0,0-1.57-5.06,15.4,15.4,0,0,0-8.21-3.08,42.1037,42.1037,0,0,0-10.8.82c-5.38.91-10.7,2.18-16.1,3.02a40.0363,40.0363,0,0,1-10.25.55,14.1274,14.1274,0,0,1-8.4-3.72c-.62-.57-1.27-1.12-1.86-1.73a13.5385,13.5385,0,0,0-6.51-3.54,74.829,74.829,0,0,1-9.15-2.79,19.4532,19.4532,0,0,1-6.79-4.29c-3.1-3.2-3.36-7.09-.89-10.12a5.4945,5.4945,0,0,1,6.24-1.79,15.4044,15.4044,0,0,1,5.34,3.38,36.3174,36.3174,0,0,1,3.24,3.44,57.831,57.831,0,0,0,4.32,4.66,31.2241,31.2241,0,0,0,7.84,5.45c1.22.6,2.34,1.34,3.51,2a21.266,21.266,0,0,0,12.62,2.51,32.7666,32.7666,0,0,0,6.58-1.23,13.0615,13.0615,0,0,0,3.24-1.5,2.0815,2.0815,0,0,0,.82-.79,2.58,2.58,0,0,1,1.83-1.41,5.522,5.522,0,0,0,2.48-1.64,2.9077,2.9077,0,0,0,.66-3.2,17.1406,17.1406,0,0,0-1.13-2.27,12.0434,12.0434,0,0,1-.68-1.34,2.04,2.04,0,0,1,.27-2.08,5.0186,5.0186,0,0,1,1.93-1.61,19.7451,19.7451,0,0,1,6.78-1.79,14.6348,14.6348,0,0,1,3.55.33,9.25,9.25,0,0,0,4.89-.41,5.4721,5.4721,0,0,0,2.88-2.21,2.6731,2.6731,0,0,1,1.84-1.25,29.7457,29.7457,0,0,0,3.08-.97,4.4221,4.4221,0,0,0,2.7-2.38,4.8225,4.8225,0,0,1,.41-.69,2.02,2.02,0,0,1,2.04-.97,49.7262,49.7262,0,0,0,10.83-.6,1.4242,1.4242,0,0,1,1.43.44,10.0431,10.0431,0,0,0,2.09,1.63,26.2337,26.2337,0,0,1,6.57,5.77,10.5958,10.5958,0,0,1,2.08,5.2c.09.68.21,1.37.27,2.06a1.8585,1.8585,0,0,0,2.68,1.61,5.7734,5.7734,0,0,0,3.28-3.08,15.4977,15.4977,0,0,0,1.55-8.98,37.1854,37.1854,0,0,0-1.38-6.19c-.25-.8-.23-.84.58-.96a15.63,15.63,0,0,1,3.35.08,44.5309,44.5309,0,0,1,9.78,1.63,20.88,20.88,0,0,1,3.59,1.57,23.3693,23.3693,0,0,1,4.15,2.72,10.0174,10.0174,0,0,1,3.63,6.75c.17,1.58.21,3.15.25,4.74a23.4584,23.4584,0,0,0,.64,6.08c1.5,5.19,5.72,8.91,11.28,8.92a25.2955,25.2955,0,0,0,5.63-.54,10.6628,10.6628,0,0,0,5.23-2.8c3.37-3.3,4.59-7.38,4.38-11.98a14.6266,14.6266,0,0,0-.94-4.62.5463.5463,0,0,1-.04-.45c.15-.16.34-.11.53-.1a18.0636,18.0636,0,0,0,7.51-1.02,23.9205,23.9205,0,0,0,9.07-5.15,8.4612,8.4612,0,0,0,2.52-8.63,9.9016,9.9016,0,0,0-5.45-6.4c-3.41-1.82-7.06-1.99-10.81-1.52a28.259,28.259,0,0,0-9.52,3.02,2.8718,2.8718,0,0,1-.37.11,1.7809,1.7809,0,0,1-.11-1.11,52.54,52.54,0,0,0-1.54-14.68,61.2254,61.2254,0,0,0-6.53-15.99,59.6388,59.6388,0,0,0-6.47-9,56.8056,56.8056,0,0,0-7.94-7.72,1.9345,1.9345,0,0,1-.71-2.31,5.9473,5.9473,0,0,1,5.23-4.55c2.02-.29,4.06-.45,6.07-.83a4.973,4.973,0,0,0,1.21-.36,3.2408,3.2408,0,0,0,1.78-4.42,13.977,13.977,0,0,0-2.63-4.19c-1.19-1.36-2.47-2.65-3.6-4.06a6.4685,6.4685,0,0,1-1.43-6.05,9.0271,9.0271,0,0,1,1.91-3.9,3.1113,3.1113,0,0,1,3.35-.96,21.2554,21.2554,0,0,1,4.6,1.84c1.86,1.01,3.72,2.02,5.59,3.01a14.8832,14.8832,0,0,0,2.75,1.2,4.5031,4.5031,0,0,1,1.45.93,16.4245,16.4245,0,0,0,4.8,2.93,11.5763,11.5763,0,0,0,7.49-.03,17.0685,17.0685,0,0,0,5.33-2.94c3.32-2.59,6.27-5.53,7.89-9.49a30.8121,30.8121,0,0,0,2.33-15.82c-.44-3.44-1.09-6.85-1.58-10.28a12.3347,12.3347,0,0,1,1.35-8.16c.65-1.14,1.23-2.31,1.94-3.42a18.0556,18.0556,0,0,1,2.52-3,3.28,3.28,0,0,1,3.49-.9,7.26,7.26,0,0,1,2.11.93,11.0284,11.0284,0,0,1,5.12,9.09,46.8433,46.8433,0,0,1-.34,5.3,29.369,29.369,0,0,0-.14,6,8.514,8.514,0,0,0,1.42,4.1c.41.56.73,1.18,1.09,1.77a6.8117,6.8117,0,0,1,1.01,3.4,56.1352,56.1352,0,0,1-.23,8.2,10.57,10.57,0,0,1-2.13,5.05c-.11.16-.23.31-.33.47-1.71,2.84-3.63,5.55-5.54,8.25-2.51,3.56-4.91,7.18-7.26,10.84-.29.46-.54.94-.8,1.41a50.256,50.256,0,0,0-4.48,10.25,10.5918,10.5918,0,0,1-1.03,2.31,19.442,19.442,0,0,0-1.17,2.64,104.473,104.473,0,0,0-4.7,15.69c-.23,1.17-.47,2.35-.62,3.53a10.658,10.658,0,0,0,1.53,7.1,7.42,7.42,0,0,0,6.34,3.62,20.872,20.872,0,0,0,4.92-.57c2.03-.4,2.66,0,3.86,1.89.41.64.7,1.37,1.06,2.05a3.9465,3.9465,0,0,0,4.52,2.2c1.78-.3,3.56-.63,5.35-.84a17.8553,17.8553,0,0,1,7.89.56C260.32,181.85,260.4,181.85,260.47,181.88Z" transform="translate(-17.822 -25.1865)"/><path class="cls-5" d="M228.25,196.59c.57,2.21-.32,4.08-1.75,5.72a14.0761,14.0761,0,0,1-4.39,3.14,25.8966,25.8966,0,0,1-5.25,2.09,14.815,14.815,0,0,1-6.97.3,12.4231,12.4231,0,0,0-1.49-.21,1.227,1.227,0,0,0-1.13,2.02,13.6923,13.6923,0,0,1,1.02,1.54,9.5683,9.5683,0,0,1,1.09,3.62,13.62,13.62,0,0,1-1.14,7.54c-1.72,3.66-4.46,5.82-8.53,6.16a20.6859,20.6859,0,0,1-4.38.09,8.589,8.589,0,0,1-4.94-2.29,10.1866,10.1866,0,0,1-3.27-7.06c-.13-2.11-.14-4.24-.23-6.35-.03-.73-.09-1.47-.18-2.19a12.0128,12.0128,0,0,0-4.44-8.09,26.2794,26.2794,0,0,0-12.57-5.74q-3.765-.6-7.57-.88a9.9139,9.9139,0,0,0-3.56.25.7463.7463,0,0,1-1.03-.41,2.1716,2.1716,0,0,0-.79-.83,1.0492,1.0492,0,0,0-1.38,0,1.0344,1.0344,0,0,0-.19,1.37c.37.68.74,1.35,1.15,2a16.9337,16.9337,0,0,1,2.03,6.22,14.92,14.92,0,0,1-.84,8.51,5.2438,5.2438,0,0,1-2.23,2.49,22.2949,22.2949,0,0,0-.69-4.21,15.1745,15.1745,0,0,0-4.08-6.2,39.6837,39.6837,0,0,0-6.15-4.49,9.3613,9.3613,0,0,1-2.79-3.15,12.1537,12.1537,0,0,1-1.42-3.88,14.6776,14.6776,0,0,0-1.22-3.48c-.07-.14-.15-.3-.32-.29-.23.01-.3.2-.31.41a3.7451,3.7451,0,0,0,.01.58c.3,1.78.57,3.57.93,5.35a26.0548,26.0548,0,0,0,.8,2.59c-.95.1-1.81.22-2.69.29a52.7259,52.7259,0,0,1-15.4-.96,97.7173,97.7173,0,0,1-10.1-2.45,40.8732,40.8732,0,0,1-8.75-4.11,1.1979,1.1979,0,0,1-.23-.21c-.03-.26.19-.35.26-.52a.7958.7958,0,0,0-.7-1.23,1.77,1.77,0,0,0-.23-.01,30.0489,30.0489,0,0,1-10.55-1.67,11.0128,11.0128,0,0,1-2.46-.86c.54-.16.91-.29,1.29-.38a25.9462,25.9462,0,0,0,6.53-2.59,2.8287,2.8287,0,0,0,.93-.68,1.058,1.058,0,0,0,.1-1.38,1.0031,1.0031,0,0,0-1.33-.35c-.72.35-1.4.81-2.12,1.17a19.3212,19.3212,0,0,1-13.57,1.69A9.8772,9.8772,0,0,1,76.32,182a6.0113,6.0113,0,0,1-1.82-5.25,8.4962,8.4962,0,0,1,1.73-4.21,17.684,17.684,0,0,1,6.56-5.33,1.3329,1.3329,0,0,0,.73-.84,53.8556,53.8556,0,0,1,5.03-10.63,52.107,52.107,0,0,1,9.6-11.79,56.6138,56.6138,0,0,1,23.46-12.89,61.9607,61.9607,0,0,1,18.52-2.19,65.8853,65.8853,0,0,1,39.02,14.3,62.36,62.36,0,0,1,9.6,9.48,64.8067,64.8067,0,0,1,6.57,9.89,58.8469,58.8469,0,0,1,3.3,7.5,53.241,53.241,0,0,1,3.09,20.89,9.097,9.097,0,0,0-.03,1.04,1.1537,1.1537,0,0,0,1.78,1.05,39.8882,39.8882,0,0,1,6.93-2.52,21.6053,21.6053,0,0,1,10.17-.57,12.39,12.39,0,0,1,4.62,2.04A7.728,7.728,0,0,1,228.25,196.59Zm-72.22,13.69c.16-3.52-3.69-7.68-7.03-9.07,1.19,1.47,2.78,2.57,3.98,4.05A35.5342,35.5342,0,0,1,156.03,210.28ZM123.2,180.89c.17-.08.15-.24.13-.53a10.8938,10.8938,0,0,0-1.05-2.75c-.11-.23-.3-.48-.63-.35a.6181.6181,0,0,0-.41.74,5.8323,5.8323,0,0,0,1.54,2.76A.3914.3914,0,0,0,123.2,180.89Zm-2-17.74c.03-4.93-3.75-7.75-7.9-7.18a8.9985,8.9985,0,0,0-7.35,10.81,6.621,6.621,0,0,0,7.17,5.22A8.8925,8.8925,0,0,0,121.2,163.15Zm-3.49,17.27a.4276.4276,0,0,0,.67-.43,8.7948,8.7948,0,0,0-1.2-3.08c-.18-.26-.48-.21-.6.14a1.6354,1.6354,0,0,0-.06.42,7.7362,7.7362,0,0,0,.81,2.53A1.0924,1.0924,0,0,0,117.71,180.42Z" transform="translate(-17.822 -25.1865)"/><path class="cls-3" d="M216.5,33.81a29.2719,29.2719,0,0,1-.3,6.68c-.33,2.51-.59,5.04-.72,7.65a1.8515,1.8515,0,0,1-1.64-1.13,5.1317,5.1317,0,0,0-1.68-1.88,25.9122,25.9122,0,0,1-6.21-7.06,18.0213,18.0213,0,0,1-2.27-5.39,5.9458,5.9458,0,0,1,6.04-7.49,5.1882,5.1882,0,0,1,3.83,1.87A11.71,11.71,0,0,1,216.5,33.81Zm-2.34,10.98c-.16-3.11.32-5.93.27-8.79a14.1315,14.1315,0,0,0-.74-4.42A7.5789,7.5789,0,0,0,211.25,28a2.7864,2.7864,0,0,0-2.48-.6,3.8674,3.8674,0,0,0-3.06,4.68,17.7609,17.7609,0,0,0,3.22,6.97A43.8335,43.8335,0,0,0,214.16,44.79Z" transform="translate(-17.822 -25.1865)"/><path class="cls-6" d="M210.57,110.91a2.671,2.671,0,0,1-.85,2.73c-1.12.95-2.32,1.55-3.9.82-1.64-.76-3.25-1.57-4.85-2.42a42.5408,42.5408,0,0,0-6.41-2.91,8.6577,8.6577,0,0,0-2.71-.5,4.3983,4.3983,0,0,0-3.52,1.46,12.1865,12.1865,0,0,0-3.06,7.09,7.9775,7.9775,0,0,0,1.7,5.16c.34.5.71.99,1.14,1.59a5.9726,5.9726,0,0,1-3.12.26,16.4327,16.4327,0,0,1-5.35-1.33,6.7925,6.7925,0,0,1-3.99-4.92,6.55,6.55,0,0,1,.26-2.85c.21-.9.52-1.78.74-2.67a6.796,6.796,0,0,0-1.8-6.29,19.2857,19.2857,0,0,0-4.72-3.87,44.2893,44.2893,0,0,0-11.01-4.39,3.1294,3.1294,0,0,0-.9-.18,1.6286,1.6286,0,0,1-1.76-.99.8827.8827,0,0,0-.77-.45.61.61,0,0,0-.71.78,4.3972,4.3972,0,0,0,.31.75,9.5191,9.5191,0,0,1,.54,6.11,5.223,5.223,0,0,1-2.56,3.68,1.7316,1.7316,0,0,1-1.08.29c-.21-.35-.05-.69-.02-1.03a7.1056,7.1056,0,0,0-1.78-5.21,23.46,23.46,0,0,0-3.67-3.65,7.0426,7.0426,0,0,1-2.81-5.46,4.3514,4.3514,0,0,0-.62-2.43c-.48.73-.57,2.29-.33,5.27a18.8118,18.8118,0,0,1-3.6-.61,60.8889,60.8889,0,0,1-12.31-4.22,50.0529,50.0529,0,0,1-8.83-4.75c-.66-.48-1.29-.98-1.93-1.48-.3-.23-.37-.36-.1-.78.33-.51-.26-.69-.67-.76a22.8234,22.8234,0,0,1-4.05-1.32,38.3963,38.3963,0,0,1-5.02-2.42,1.7693,1.7693,0,0,1,1.13-.15,27.3913,27.3913,0,0,0,4.96-.22c.49-.08,1.07-.07,1.16-.72.06-.47-.53-.76-1.37-.68-.61.06-1.22.2-1.83.25a21.387,21.387,0,0,1-8.76-1.13,16.5185,16.5185,0,0,1-3.46-1.81,3.9287,3.9287,0,0,1-.61-.54c-2.11-2.09-1.75-4.66.87-6.1a11.9012,11.9012,0,0,1,4.57-1.5,4.2213,4.2213,0,0,0,2.84-1.5,31.45,31.45,0,0,1,6.13-5.07,40.0047,40.0047,0,0,1,13.86-5.49,55.4427,55.4427,0,0,1,16.56-.75,66.811,66.811,0,0,1,23.69,6.89,58.737,58.737,0,0,1,12.98,8.76,45.0791,45.0791,0,0,1,9.79,12.18,33.403,33.403,0,0,1,3.31,9.43,23.9287,23.9287,0,0,1,.44,5.06,28.4216,28.4216,0,0,1-1.3,7.02c-.05.14-.11.29-.16.43-.26.88.09,1.36,1.01,1.27,1.08-.11,2.16-.06,3.24-.09a28.0122,28.0122,0,0,1,8,.9,13.8684,13.8684,0,0,1,5.24,2.6A4.9448,4.9448,0,0,1,210.57,110.91Zm-57.18-5.92c.24-2.31-1.35-4.88-3.85-6.25A13.988,13.988,0,0,1,153.39,104.99ZM134.33,71.5a2.4392,2.4392,0,0,0,.07-1.8,5.2882,5.2882,0,0,0-3.04-3.28,7.7153,7.7153,0,0,0-6.79.23,4.0444,4.0444,0,0,0-.31,7.31,7.9206,7.9206,0,0,0,4.35,1.15,12.7131,12.7131,0,0,0,1.65-.23A5.3961,5.3961,0,0,0,134.33,71.5Zm-1.15,10.56a4.67,4.67,0,0,0-.41-2.18.3608.3608,0,0,0-.44-.26.3682.3682,0,0,0-.28.43A2.133,2.133,0,0,0,133.18,82.06Zm-4-1.38c.37-.05.26-.4.29-.66a3.5835,3.5835,0,0,0-.35-1.43.3011.3011,0,0,0-.39-.15.3952.3952,0,0,0-.2.24,2.8366,2.8366,0,0,0,.14,1.47C128.73,80.4,128.87,80.71,129.18,80.68Z" transform="translate(-17.822 -25.1865)"/><path class="cls-3" d="M207.12,85.52a.8513.8513,0,0,1-.16.86,11.5326,11.5326,0,0,0-4.14-4.02,36.585,36.585,0,0,0-3.62-2.04,27.9579,27.9579,0,0,1-8.93-7.17,20.1189,20.1189,0,0,1-4.21-7.99,6.1675,6.1675,0,0,1,1.72-6.14,5.5679,5.5679,0,0,1,5.78-1.32,10.94,10.94,0,0,1,3.05,1.34,20.0927,20.0927,0,0,1,4.5,3.93,23.819,23.819,0,0,1,3.92,7.14c1.54,3.92,1.78,8.01,1.95,12.13a2.6467,2.6467,0,0,1-.02.69A3.9738,3.9738,0,0,0,207.12,85.52Zm-2.08-3.08a1.4748,1.4748,0,0,0,0-.96c-.26-1.24-.53-2.48-.71-3.74a32.6169,32.6169,0,0,0-2.83-9.35,17.6529,17.6529,0,0,0-5.01-6.25,9.6454,9.6454,0,0,0-3.97-2.04,3.2591,3.2591,0,0,0-4.09,2.57,6.3583,6.3583,0,0,0,.68,4.37,26.1868,26.1868,0,0,0,9.12,10.51C200.51,79.11,202.97,80.41,205.04,82.44Z" transform="translate(-17.822 -25.1865)"/><path class="cls-2" d="M177.11,239.23a7.5221,7.5221,0,0,1,5.29-1.65c-.77.51-1.32.89-1.88,1.26a9.2466,9.2466,0,0,0-3.32,4.2c-.59,1.35-1.16,2.69-1.67,4.06a29.041,29.041,0,0,1-3.98,7.27,34.1968,34.1968,0,0,1-7.82,7.32,44.079,44.079,0,0,1-8.05,4.5,40.9591,40.9591,0,0,1-14.37,3.62,14.8336,14.8336,0,0,1-3.46-.18,7.5167,7.5167,0,0,1-5.89-9.49,8.3811,8.3811,0,0,1,2.9-4.61c.55-.42,1.08-.87,1.59-1.34a1.2237,1.2237,0,0,0,.37-1.55c-.29-.47-.82-.62-1.55-.35-2.01.76-4.05,1.47-6.13,2.05-4.19,1.15-8.32,2.52-12.49,3.78a28.9907,28.9907,0,0,1-6.67,1.32,9.9947,9.9947,0,0,1-3.98-.53,4.881,4.881,0,0,1-3.32-4.2c-.19-1.34-.23-2.69-.45-4.02-.43-2.59-1.72-4.49-4.38-5.26a18.6023,18.6023,0,0,0-5.02-.7c-4.86-.07-9.71.03-14.57.14a120.42,120.42,0,0,1-17.09-.62,62.7579,62.7579,0,0,1-21.1-6.06,40.1955,40.1955,0,0,1-8.53-5.7,35.8788,35.8788,0,0,1-6.94-8.29,32.5894,32.5894,0,0,1-4.15-10.35,17.4739,17.4739,0,0,1,.29-8.47,21.8836,21.8836,0,0,1,5.9-10.31,18.5659,18.5659,0,0,1,13.26-5.35,15.1081,15.1081,0,0,1,7.89,2.33,18.2714,18.2714,0,0,1,4.3,3.64,36.4841,36.4841,0,0,1,3.9,5.58c1.23,2.14,2.25,4.39,3.3,6.61,1.06,2.23,2.08,4.48,3.3,6.62a33.1631,33.1631,0,0,0,4.1,6.27,2.394,2.394,0,0,1,.69,1.14c-.7-.46-1.26-.77-1.76-1.15a39.8516,39.8516,0,0,1-5.05-4.58c-1.63-1.74-3.05-3.66-4.75-5.35a18.8636,18.8636,0,0,0-6.32-4.35,6.87,6.87,0,0,0-8.18,2.49,7.65,7.65,0,0,0-1.12,7.64,11.5308,11.5308,0,0,0,3.56,4.75,27.0359,27.0359,0,0,0,9.58,4.7c2.1.63,4.23,1.17,6.34,1.75a12.5786,12.5786,0,0,1,5.63,3.26,21.4867,21.4867,0,0,0,4.47,3.62,19.4106,19.4106,0,0,0,10.96,2.08c5.75-.34,11.34-1.62,16.96-2.76a75.923,75.923,0,0,1,12.56-1.83,17.8766,17.8766,0,0,1,7.68,1.25,10.2346,10.2346,0,0,1,3.51,2.39,2.6567,2.6567,0,0,1,.71,2.23,5.633,5.633,0,0,1-.81,2.27,46.0794,46.0794,0,0,0-2.31,4.26,9.415,9.415,0,0,0-.82,2.52,2.998,2.998,0,0,0,2.2,3.46,5.948,5.948,0,0,0,2.75.09,32.6945,32.6945,0,0,0,5.94-1.85,118.7515,118.7515,0,0,1,16.72-4.84,14.5182,14.5182,0,0,1,7.76.31,8.4343,8.4343,0,0,1,5.09,4.06,15.97,15.97,0,0,0,1.77,2.83c1.87,2.25,4.22,2.69,6.88,2.01a11.5177,11.5177,0,0,0,5.99-3.52,11.1094,11.1094,0,0,0,2.22-4.9,22.592,22.592,0,0,0,.6-3.65A2.5232,2.5232,0,0,1,177.11,239.23Z" transform="translate(-17.822 -25.1865)"/><path class="cls-6" d="M181.49,53.33a6.606,6.606,0,0,1-1.59,1.55,22.9571,22.9571,0,0,0-3.81,3.69,6.9045,6.9045,0,0,0-1.53,5.17c-2.3-1.37-4.44-2.75-6.7-3.93-2.29-1.19-4.65-2.21-7.09-3.24a4.6441,4.6441,0,0,1,2.17-1.06,52.3069,52.3069,0,0,1,6.89-1.42,13.6537,13.6537,0,0,0,3.32-.62,58.1206,58.1206,0,0,0-10.61,1.18,8.5469,8.5469,0,0,0-2.46.95,1.8681,1.8681,0,0,1-2.21-.15,2.9276,2.9276,0,0,1,1.41-.89,32.6152,32.6152,0,0,1,6.67-1.83,39.2334,39.2334,0,0,1,11.85-.22A12.5387,12.5387,0,0,1,181.49,53.33Z" transform="translate(-17.822 -25.1865)"/><path class="cls-5" d="M172.7,113.2a4.1042,4.1042,0,0,1-.56,1.6c-.79,1.58-1.66,3.13-2.41,4.73a26.2232,26.2232,0,0,0-2.44,7.8,16.2414,16.2414,0,0,0,.56,5.98c-1.69-.48-3.14-1.35-4.7-1.92-1.59-.58-3.18-1.17-4.8-1.67-1.61-.51-3.24-.98-4.9-1.33-1.65-.36-3.31-.69-5.03-1.04a6.01,6.01,0,0,1,1.91-2.28,57.8906,57.8906,0,0,1,10.16-6.58c.74-.4,1.46-.83,2.24-1.27-.34-.25-.56-.02-.77.07a63.8987,63.8987,0,0,0-11.11,5.6,15.8559,15.8559,0,0,0-3.79,3.51,1.3421,1.3421,0,0,1-1.54.61c-.3-.07-.62.01-.95-.19a2.7985,2.7985,0,0,1,.88-1.53,27.9214,27.9214,0,0,1,4.75-4.21,42.5444,42.5444,0,0,1,7.95-4.68,35.8592,35.8592,0,0,1,12.89-3.32A3.6462,3.6462,0,0,1,172.7,113.2Z" transform="translate(-17.822 -25.1865)"/><path class="cls-3" d="M149,201.21c3.34,1.39,7.19,5.55,7.03,9.07a35.5342,35.5342,0,0,0-3.05-5.02C151.78,203.78,150.19,202.68,149,201.21Z" transform="translate(-17.822 -25.1865)"/><path class="cls-3" d="M149.54,98.74c2.5,1.37,4.09,3.94,3.85,6.25A13.988,13.988,0,0,0,149.54,98.74Z" transform="translate(-17.822 -25.1865)"/><path class="cls-3" d="M134.4,69.7a2.4392,2.4392,0,0,1-.07,1.8,5.3961,5.3961,0,0,1-4.07,3.38,12.7131,12.7131,0,0,1-1.65.23,7.9206,7.9206,0,0,1-4.35-1.15,4.0444,4.0444,0,0,1,.31-7.31,7.7153,7.7153,0,0,1,6.79-.23A5.2882,5.2882,0,0,1,134.4,69.7Zm-2.99,2.66c.96.03,1.54-.4,1.54-1.14a1.723,1.723,0,0,0-1.73-1.88c-1.02-.02-1.48.38-1.51,1.29A1.5981,1.5981,0,0,0,131.41,72.36Z" transform="translate(-17.822 -25.1865)"/><path class="cls-3" d="M132.77,79.88a4.67,4.67,0,0,1,.41,2.18,2.133,2.133,0,0,1-1.13-2.01.3682.3682,0,0,1,.28-.43A.3608.3608,0,0,1,132.77,79.88Z" transform="translate(-17.822 -25.1865)"/><path class="cls-3" d="M129.47,80.02c-.03.26.08.61-.29.66-.31.03-.45-.28-.51-.53a2.8366,2.8366,0,0,1-.14-1.47.3952.3952,0,0,1,.2-.24.3011.3011,0,0,1,.39.15A3.5835,3.5835,0,0,1,129.47,80.02Z" transform="translate(-17.822 -25.1865)"/><path class="cls-2" d="M124.01,200.92c.87.15,1.74.27,2.66.41a4.158,4.158,0,0,1-2.69,2.98c-.96.3-1.87.73-2.81,1.05a4.7444,4.7444,0,0,0-2.38,1.56c-1.46,1.91-3.48,2.41-5.74,2.29-1.15-.06-2.28-.34-3.45-.34a19.2382,19.2382,0,0,0-8.03,1.86,6.8989,6.8989,0,0,0-2.78,2.36,2.5543,2.5543,0,0,0-.11,3.02c.53.9,1.13,1.75,1.61,2.67.9,1.69.69,2.63-.8,3.81a5.4731,5.4731,0,0,1-2.22,1.11c-.26-.23-.21-.53-.26-.78a4.096,4.096,0,0,0-1.49-2.41,24.8324,24.8324,0,0,0-3.71-2.54c-.98-.52-1.91-1.16-2.84-1.78a2.577,2.577,0,0,1-1.16-2.7,4.4064,4.4064,0,0,1,.44-1.43,11.4861,11.4861,0,0,1,4.11-4.58,31.7456,31.7456,0,0,1,9.38-3.47c2.24-.53,4.55-.84,6.74-1.58,1.92-.65,3.74-1.48,4.84-3.33.26-.44.58-.37.99-.27C117.53,199.59,120.75,200.35,124.01,200.92Z" transform="translate(-17.822 -25.1865)"/><path class="cls-3" d="M123.33,180.36c.02.29.04.45-.13.53a.3914.3914,0,0,1-.42-.13,5.8323,5.8323,0,0,1-1.54-2.76.6181.6181,0,0,1,.41-.74c.33-.13.52.12.63.35A10.8938,10.8938,0,0,1,123.33,180.36Z" transform="translate(-17.822 -25.1865)"/><path class="cls-3" d="M113.3,155.97c4.15-.57,7.93,2.25,7.9,7.18a8.8925,8.8925,0,0,1-8.08,8.85,6.621,6.621,0,0,1-7.17-5.22A8.9985,8.9985,0,0,1,113.3,155.97Zm4.72,9.78a1.9467,1.9467,0,0,0,1.45-2.57,7.0335,7.0335,0,0,0-.43-1.19,1.9833,1.9833,0,0,0-2.14-1.19,2.1927,2.1927,0,0,0-1.65,2.24,11.1056,11.1056,0,0,0,.26,1.34A1.8936,1.8936,0,0,0,118.02,165.75Z" transform="translate(-17.822 -25.1865)"/><path class="cls-3" d="M118.38,179.99a.4276.4276,0,0,1-.67.43,1.0924,1.0924,0,0,1-.38-.42,7.7362,7.7362,0,0,1-.81-2.53,1.6354,1.6354,0,0,1,.06-.42c.12-.35.42-.4.6-.14A8.7948,8.7948,0,0,1,118.38,179.99Z" transform="translate(-17.822 -25.1865)"/><path class="cls-6" d="M115.01,129.84c.25.96.26.96-.67,1.34a58.4241,58.4241,0,0,0-15.22,9.08c-.91.78-.91.72-1.96.09a33.12,33.12,0,0,0-9.64-3.74c-.49-.11-1-.1-1.21-.71a.7672.7672,0,0,0-.63-.45c-.57-.14-.91.2-.72.76.21.62.49,1.22.67,1.84a6.45,6.45,0,0,1-1.1,5.9,3.6083,3.6083,0,0,1-.74.72c-.27.2-.59.49-.94.31s-.13-.56-.1-.84a4.9959,4.9959,0,0,0-.72-2.98,11.2107,11.2107,0,0,0-2.89-3.57,10.8882,10.8882,0,0,1-2.06-2.01,5.8876,5.8876,0,0,1-1.01-3.02,4.9943,4.9943,0,0,0-.7-2.41,7.1067,7.1067,0,0,0-.24,2.31c-.06.68-.02,1.37-.02,2.15a15.68,15.68,0,0,1-3.34-.58,54.4737,54.4737,0,0,1-11.11-4.16,30.51,30.51,0,0,1-6.94-4.31c-.23-.2-.56-.31-.18-.69.23-.22.02-.44-.21-.52a8.5692,8.5692,0,0,0-.99-.28A31.5823,31.5823,0,0,1,46,121.32a.24.24,0,0,1-.16-.33h2.35a14.5576,14.5576,0,0,0,2.64-.23c.36-.06.74-.16.68-.61-.04-.41-.4-.53-.77-.54a3.6794,3.6794,0,0,0-.58.05,15.967,15.967,0,0,1-9.58-1.28,6.6992,6.6992,0,0,1-2.37-1.81,2.7682,2.7682,0,0,1,.39-4.18,5.972,5.972,0,0,1,2.34-1.22,9.6805,9.6805,0,0,1,2.12-.53,2.8135,2.8135,0,0,0,2.11-1.16,29.6359,29.6359,0,0,1,15.38-8.62,44.1475,44.1475,0,0,1,14.59-.78,53.0238,53.0238,0,0,1,17.35,4.89,48.5235,48.5235,0,0,1,7.86,4.63,43.43,43.43,0,0,1,9.2,8.86A31.2407,31.2407,0,0,1,115.01,129.84ZM83.86,142.79c-.02-2.55-1.48-3.93-3.06-5.22a18.3189,18.3189,0,0,0,1.67,2.36C83.11,140.7,83.16,141.75,83.86,142.79ZM67.2,123.57a2.118,2.118,0,0,0-.13-1.55c-.07-.21-.17-.44-.46-.33a.36.36,0,0,0-.22.46A1.9707,1.9707,0,0,0,67.2,123.57Zm-.84-6.45a3.3649,3.3649,0,0,0,.36-5.93,6.2479,6.2479,0,0,0-3.56-1.07,5.844,5.844,0,0,0-3.38,1.09,3.2751,3.2751,0,0,0-.07,5.47A6.1093,6.1093,0,0,0,66.36,117.12Zm-2.18,5.32c.15-1.14.15-1.14-.44-1.79C63.37,121.61,63.48,122.02,64.18,122.44Z" transform="translate(-17.822 -25.1865)"/><path class="cls-6" d="M105.97,99.63a3.1238,3.1238,0,0,1,.36.15c-.11.59-.6.88-1.01,1.17a19.8693,19.8693,0,0,0-3.62,3.71,4.3015,4.3015,0,0,0-.86,2.36c-.05.41-.08.82-.12,1.39a69.3885,69.3885,0,0,0-10.93-5.95c2.89-1.6,6.12-1.69,9.2-2.43a44.412,44.412,0,0,0-5.75.46,12.4331,12.4331,0,0,0-4.39,1.33c-.59.34-.99.03-1.53-.22a2.5485,2.5485,0,0,1,1.39-.88,30.61,30.61,0,0,1,16.82-1.23A3.2211,3.2211,0,0,1,105.97,99.63Z" transform="translate(-17.822 -25.1865)"/><path class="cls-3" d="M105.6,271.19c.37.1.42.41.12.66a7.5,7.5,0,0,0-2.15,3.49,26.0783,26.0783,0,0,1-2.85,5.53,5.83,5.83,0,0,1-4.43,2.8c-2.04.23-3.12-.8-3.08-3.15a7.5361,7.5361,0,0,1,2.07-4.62,17.7692,17.7692,0,0,1,8.83-4.72A2.8958,2.8958,0,0,1,105.6,271.19Zm-5.77,8.33a56.8946,56.8946,0,0,0,2.72-6.16,14.935,14.935,0,0,0-5.83,3.97,8.5058,8.5058,0,0,0-1.48,2.6c-.23.67-.53,1.5.1,2.05.65.57,1.47.23,2.17-.12A5.5145,5.5145,0,0,0,99.83,279.52Z" transform="translate(-17.822 -25.1865)"/><path class="cls-3" d="M86.13,258.79c.46.18.29.85.84,1.01a24.8379,24.8379,0,0,0-4.11,1.41,18.0816,18.0816,0,0,0-4.14,2.49,27.8877,27.8877,0,0,0-5.42,5.64c-.81,1.13-1.56,2.28-2.26,3.48a18.679,18.679,0,0,1-3.97,4.61,6.0771,6.0771,0,0,1-3.99,1.62,4.7679,4.7679,0,0,1-5.19-5.17,8.3677,8.3677,0,0,1,2.01-5.17,22.5693,22.5693,0,0,1,7.07-5.47,38.7424,38.7424,0,0,1,11.04-4.27,18.8268,18.8268,0,0,1,6.65-.41A6.7155,6.7155,0,0,1,86.13,258.79Zm-3.27.84a6.5053,6.5053,0,0,0-2.14.24,42.2518,42.2518,0,0,0-17.57,8.59,9.9867,9.9867,0,0,0-2.48,3.15,5.391,5.391,0,0,0-.55,3.48,2.6208,2.6208,0,0,0,2.64,2.28,4.5733,4.5733,0,0,0,2.88-1.01A16.3682,16.3682,0,0,0,69.96,271a31.2727,31.2727,0,0,1,3.79-5.5,18.7471,18.7471,0,0,1,6.45-4.93C81,260.23,81.84,259.98,82.86,259.63Z" transform="translate(-17.822 -25.1865)"/><path class="cls-3" d="M80.8,137.57c1.58,1.29,3.04,2.67,3.06,5.22-.7-1.04-.75-2.09-1.39-2.86A18.3189,18.3189,0,0,1,80.8,137.57Z" transform="translate(-17.822 -25.1865)"/><path class="cls-3" d="M67.07,122.02a2.118,2.118,0,0,1,.13,1.55,1.9707,1.9707,0,0,1-.81-1.42.36.36,0,0,1,.22-.46C66.9,121.58,67,121.81,67.07,122.02Z" transform="translate(-17.822 -25.1865)"/><path class="cls-3" d="M66.72,111.19a3.3649,3.3649,0,0,1-.36,5.93,6.1093,6.1093,0,0,1-6.65-.44,3.2751,3.2751,0,0,1,.07-5.47,5.844,5.844,0,0,1,3.38-1.09A6.2479,6.2479,0,0,1,66.72,111.19Zm-.8,4.42c.79,0,1.2-.37,1.18-1.06a1.3577,1.3577,0,0,0-1.53-1.45,1,1,0,0,0-1.07,1.18A1.3452,1.3452,0,0,0,65.92,115.61Z" transform="translate(-17.822 -25.1865)"/><path class="cls-3" d="M63.74,120.65c.59.65.59.65.44,1.79C63.48,122.02,63.37,121.61,63.74,120.65Z" transform="translate(-17.822 -25.1865)"/><path class="cls-7" d="M36.4044,220.5593a.5.5,0,0,0,0,1A.5.5,0,0,0,36.4044,220.5593Z" transform="translate(-17.822 -25.1865)"/><path class="cls-7" d="M40.0826,227.504c-3.3845-2.7834-6.5512-5.5243-8.7218-9.4022-2.3137-4.1336-3.7556-9.5582-2.856-14.2776.1864-.9778-1.2906-1.4049-1.5066-.4153-1.2209,5.592-1.3929,10.8907.9377,16.2366,2.0245,4.644,5.6933,8.8787,10.4288,10.81C39.9807,231.114,41.4067,228.5931,40.0826,227.504Z" transform="translate(-17.822 -25.1865)"/><path class="cls-7" d="M115.485,253.237c-1.9435-.4112-4.0786-.5745-5.7708-1.7095a4.1883,4.1883,0,0,1-1.5529-1.8,9.845,9.845,0,0,1-.4255-2.6545,5.526,5.526,0,0,0-3.0783-4.6254,13.69,13.69,0,0,0-5.8361-1.2731c-.5-.0227-.632.82-.12.89a10.3889,10.3889,0,0,1,5.4777,2.6787c1.5181,1.4317.98,3.42,1.4259,5.2711,1.01,4.1861,5.7887,5.5755,9.5524,5.6477A1.24,1.24,0,0,0,115.485,253.237Z" transform="translate(-17.822 -25.1865)"/><path class="cls-7" d="M152.9709,261.8538c-1.2793.2415-2.487.722-3.7722.9556a26.3986,26.3986,0,0,1-4.0673.3669,10.7688,10.7688,0,0,1-4.0972-.4946c-1.0015-.3876-2.4778-1.3041-2.72-2.4121-.1286-.5892-1.0325-.34-.9041.2492a9.9278,9.9278,0,0,0,.5756,2.0853,4.6814,4.6814,0,0,0,1.5147,1.7029,9.0985,9.0985,0,0,0,4.9464,1.653,25.3407,25.3407,0,0,0,5.1265-.0754c1.8249-.2348,3.6365-.77,4.6323-2.424A1.1072,1.1072,0,0,0,152.9709,261.8538Z" transform="translate(-17.822 -25.1865)"/><path class="cls-7" d="M184.5919,161.8945a39.9072,39.9072,0,0,0-4.6641-5.4043,36.7885,36.7885,0,0,0-11.8258-7.4986c-.7205-.2917-1.2206.9076-.53,1.2566a39.7042,39.7042,0,0,1,10.7051,8.0974,36.7869,36.7869,0,0,1,4.1171,5.168,55.45,55.45,0,0,0,3.7045,5.6492c.6769.7971,1.6894-.0961,1.5669-.9121A14.9517,14.9517,0,0,0,184.5919,161.8945Z" transform="translate(-17.822 -25.1865)"/><path class="cls-7" d="M100.8928,118.4913a14.2688,14.2688,0,0,0-5.3793-5.4481,27.1743,27.1743,0,0,0-6.877-3.0087.8445.8445,0,0,0-.4486,1.6272,17.1658,17.1658,0,0,1,5.9986,3.2492,28.6355,28.6355,0,0,1,2.546,2.3337c.8127.8554,1.5458,1.7881,2.3934,2.61A1.13,1.13,0,0,0,100.8928,118.4913Z" transform="translate(-17.822 -25.1865)"/><path class="cls-7" d="M175.8829,71.9938a28.7629,28.7629,0,0,0-5.2713-4.9532,51.77,51.77,0,0,0-6.0546-3.7816.7662.7662,0,0,0-.7729,1.3222,40.9931,40.9931,0,0,1,5.5368,4.1322c1.7663,1.5038,3.4122,3.153,5.1036,4.7388a1.0312,1.0312,0,1,0,1.4584-1.4584Z" transform="translate(-17.822 -25.1865)"/></svg>